<?xml version="1.0" encoding="UTF-8"?>
<svg version="1.1" xmlns="http://www.w3.org/2000/svg" width="500" height="500">
<path d="M0 0 C1.12435581 0.95903148 2.24804901 1.91883983 3.37146091 2.87897682 C3.99728835 3.41338689 4.62311578 3.94779697 5.26790768 4.49840128 C7.16139008 6.13991352 8.96383938 7.84321223 10.73217773 9.61865234 C11.37231308 10.25886322 12.01244843 10.8990741 12.67198181 11.5586853 C13.33581375 12.22767853 13.99964569 12.89667175 14.68359375 13.5859375 C15.38396255 14.28772125 16.08433136 14.989505 16.80592346 15.71255493 C19.01883027 17.93101136 21.22821416 20.15293815 23.4375 22.375 C24.94703314 23.88955466 26.45679657 25.40387985 27.96679688 26.91796875 C31.64719702 30.60933099 35.32471957 34.30354069 39 38 C44.14829744 33.69372744 48.95752072 29.17688069 53.68359375 24.4140625 C54.38396255 23.71227875 55.08433136 23.010495 55.80592346 22.28744507 C58.01883027 20.06898864 60.22821416 17.84706185 62.4375 15.625 C63.94703314 14.11044534 65.45679657 12.59612015 66.96679688 11.08203125 C70.64719702 7.39066901 74.32471957 3.69645931 78 0 C81.18259851 1.40509099 83.31348466 3.06921342 85.75878906 5.53173828 C86.47923401 6.25233429 87.19967896 6.9729303 87.94195557 7.71536255 C88.70876648 8.49249603 89.47557739 9.26962952 90.265625 10.0703125 C91.05902283 10.86654022 91.85242065 11.66276794 92.66986084 12.48312378 C95.20130703 15.02575948 97.72570803 17.57526348 100.25 20.125 C101.96568617 21.85071753 103.68182662 23.57598355 105.3984375 25.30078125 C109.60424248 29.52863032 113.80428507 33.76213869 118 38 C123.14829744 33.69372744 127.95752072 29.17688069 132.68359375 24.4140625 C133.38396255 23.71227875 134.08433136 23.010495 134.80592346 22.28744507 C137.01883027 20.06898864 139.22821416 17.84706185 141.4375 15.625 C142.94703314 14.11044534 144.45679657 12.59612015 145.96679688 11.08203125 C149.64719702 7.39066901 153.32471957 3.69645931 157 0 C161.30044104 1.65870978 164.17842143 4.90350538 167.35627747 8.10903931 C167.99179037 8.7421378 168.62730328 9.37523629 169.28207415 10.02751958 C171.41394619 12.15374848 173.53858469 14.28706131 175.66333008 16.42041016 C177.18906656 17.94507387 178.71523587 19.46930456 180.24180603 20.99313354 C184.39113097 25.13760446 188.53416711 29.28831049 192.6759932 33.44027376 C197.01229486 37.78535439 201.35386312 42.12516671 205.69474792 46.46566772 C212.98912184 53.76097885 220.27960956 61.0601554 227.56762695 68.36181641 C235.98482141 76.79471046 244.40720455 85.22239303 252.83261949 93.64707339 C261.80715186 102.62092904 270.77786576 111.59859441 279.74747252 120.57737303 C282.32832006 123.16034825 284.90987421 125.74261542 287.49158669 128.3247261 C291.55768382 132.39183135 295.62120814 136.46149045 299.68279457 140.53310013 C301.17061322 142.02382835 302.65926577 143.51372484 304.14883041 145.00270844 C306.18913621 147.0425197 308.2263201 149.0854006 310.26277161 151.12905884 C310.84664117 151.7113798 311.43051074 152.29370076 312.03207332 152.89366782 C315.6510969 156.53372179 319.06981918 160.30311236 322.41263694 164.19858778 C323.88408863 165.86845848 325.40793134 167.44568312 327 169 C325.69619283 171.87374749 324.31275641 173.93660341 322.08333397 176.16276169 C321.48369123 176.76638653 320.88404849 177.37001136 320.26623476 177.99192786 C319.60670828 178.64562865 318.9471818 179.29932945 318.26766968 179.97283936 C317.56767337 180.67454451 316.86767707 181.37624966 316.14646876 182.09921861 C313.7942708 184.45471686 311.43498447 186.80298493 309.07568359 189.15136719 C307.39025147 190.83623532 305.70525932 192.52154368 304.02067566 194.20726013 C299.91650836 198.31194266 295.80776615 202.41200364 291.69699191 206.51006857 C286.91393387 211.27883219 282.13652851 216.05324185 277.35946997 220.82801417 C268.84023374 229.34287332 260.3165409 237.8532567 251.79003906 246.36083984 C243.50742282 254.62509763 235.22691007 262.8914537 226.94921875 271.16064453 C226.43896795 271.67036988 225.92871716 272.18009523 225.40300421 272.7052668 C222.84323491 275.26242603 220.28350692 277.81962661 217.72379947 280.37684774 C196.48893435 301.59097996 175.24675958 322.79778015 154 344 C152.87564419 343.04096852 151.75195099 342.08116017 150.62853909 341.12102318 C150.00271165 340.58661311 149.37688422 340.05220303 148.73209232 339.50159872 C146.83860992 337.86008648 145.03616062 336.15678777 143.26782227 334.38134766 C142.62768692 333.74113678 141.98755157 333.1009259 141.32801819 332.4413147 C140.66418625 331.77232147 140.00035431 331.10332825 139.31640625 330.4140625 C138.26585304 329.36138687 138.26585304 329.36138687 137.19407654 328.28744507 C134.98116973 326.06898864 132.77178584 323.84706185 130.5625 321.625 C129.05296686 320.11044534 127.54320343 318.59612015 126.03320312 317.08203125 C122.35280298 313.39066901 118.67528043 309.69645931 115 306 C111.81740149 307.40509099 109.68651534 309.06921342 107.24121094 311.53173828 C106.52076599 312.25233429 105.80032104 312.9729303 105.05804443 313.71536255 C104.29123352 314.49249603 103.52442261 315.26962952 102.734375 316.0703125 C101.94097717 316.86654022 101.14757935 317.66276794 100.33013916 318.48312378 C97.79869297 321.02575948 95.27429197 323.57526348 92.75 326.125 C91.03431383 327.85071753 89.31817338 329.57598355 87.6015625 331.30078125 C83.39575752 335.52863032 79.19571493 339.76213869 75 344 C69.85170256 339.69372744 65.04247928 335.17688069 60.31640625 330.4140625 C59.61603745 329.71227875 58.91566864 329.010495 58.19407654 328.28744507 C55.98116973 326.06898864 53.77178584 323.84706185 51.5625 321.625 C50.05296686 320.11044534 48.54320343 318.59612015 47.03320312 317.08203125 C43.35280298 313.39066901 39.67528043 309.69645931 36 306 C30.85170256 310.30627256 26.04247928 314.82311931 21.31640625 319.5859375 C20.61603745 320.28772125 19.91566864 320.989505 19.19407654 321.71255493 C16.98116973 323.93101136 14.77178584 326.15293815 12.5625 328.375 C11.05296686 329.88955466 9.54320343 331.40387985 8.03320312 332.91796875 C4.35280268 336.60933129 0.67548727 340.30374616 -3 344 C-7.89954965 339.88883342 -12.5195254 335.62213224 -17.02989197 331.09036255 C-17.70149198 330.41961697 -18.37309198 329.74887138 -19.06504351 329.05780017 C-21.29826384 326.82621728 -23.52790865 324.59109705 -25.75756836 322.35595703 C-27.36427689 320.74896623 -28.97120605 319.14219599 -30.57833862 317.53562927 C-34.92920066 313.18505364 -39.27697684 308.83140598 -43.62419963 304.47719431 C-48.17211742 299.92301697 -52.72287522 295.37167932 -57.27333069 290.82003784 C-64.90689665 283.18371888 -72.5387151 275.54565807 -80.16918945 267.90625 C-88.02608561 260.04016464 -95.88403895 252.17513785 -103.7434082 244.31152344 C-104.22844942 243.8262195 -104.71349063 243.34091556 -105.21323007 242.84090544 C-107.646722 240.4061084 -110.08023464 237.97133207 -112.51375759 235.53656602 C-132.67905013 215.360919 -152.84067867 195.1816133 -173 175 C-171.69619283 172.12625251 -170.31275641 170.06339659 -168.08333397 167.83723831 C-167.48369123 167.23361347 -166.88404849 166.62998864 -166.26623476 166.00807214 C-165.60670828 165.35437135 -164.9471818 164.70067055 -164.26766968 164.02716064 C-163.56767337 163.32545549 -162.86767707 162.62375034 -162.14646876 161.90078139 C-159.7942708 159.54528314 -157.43498447 157.19701507 -155.07568359 154.84863281 C-153.39025147 153.16376468 -151.70525932 151.47845632 -150.02067566 149.79273987 C-145.91650836 145.68805734 -141.80776615 141.58799636 -137.69699191 137.48993143 C-132.91393387 132.72116781 -128.13652851 127.94675815 -123.35946997 123.17198583 C-114.84023374 114.65712668 -106.3165409 106.1467433 -97.79003906 97.63916016 C-89.50742282 89.37490237 -81.22691007 81.1085463 -72.94921875 72.83935547 C-72.43896795 72.32963012 -71.92871716 71.81990477 -71.40300421 71.2947332 C-68.84323491 68.73757397 -66.28350692 66.18037339 -63.72379947 63.62315226 C-42.48893435 42.40902004 -21.24675958 21.20221985 0 0 Z M-3.89800984 32.76892853 C-4.45539355 33.32922508 -5.01277726 33.88952164 -5.58705139 34.46679688 C-6.17593736 35.05482841 -6.76482332 35.64285995 -7.37155432 36.24871063 C-9.36085101 38.23634916 -11.34653281 40.22756119 -13.33227539 42.21875 C-14.7509094 43.63766583 -16.16976315 45.05636199 -17.58882141 46.47485352 C-21.45451825 50.3402622 -25.31711351 54.20875711 -29.17918324 58.07778931 C-33.21064921 62.1154858 -37.24492731 66.15037047 -41.27891541 70.18554688 C-48.9236507 77.83339638 -56.56583225 85.48379251 -64.20711273 93.13509369 C-72.90391842 101.84305775 -81.6035472 110.54819905 -90.30342114 119.25309753 C-108.20543679 137.1655796 -126.10388191 155.08162589 -144 173 C-142.38819302 177.02626565 -139.54717453 179.72653304 -136.52047729 182.72003174 C-135.95523822 183.28697966 -135.38999914 183.85392759 -134.80763161 184.43805575 C-132.91146962 186.33751328 -131.00824535 188.22973195 -129.10498047 190.12207031 C-127.74466731 191.48181937 -126.38479431 192.84200889 -125.02532959 194.2026062 C-121.33168415 197.89682621 -117.63189822 201.58484098 -113.93099737 205.2717905 C-110.06502353 209.1252743 -106.20470077 212.98441061 -102.34378052 216.84295654 C-95.03090769 224.14960954 -87.71295087 231.45114869 -80.3931638 238.75087428 C-72.06043847 247.06125631 -63.73338149 255.37730811 -55.40680099 263.69384623 C-38.2775102 280.8022236 -21.14109649 297.90345151 -4 315 C-2.8835778 314.04947729 -1.76806745 313.0978835 -0.65293884 312.14584351 C-0.03164062 311.61604071 0.58965761 311.08623791 1.22978306 310.54038048 C3.45296352 308.60584709 5.54510139 306.56770808 7.62109375 304.4765625 C8.80541992 303.28740234 8.80541992 303.28740234 10.01367188 302.07421875 C10.81353516 301.26597656 11.61339844 300.45773437 12.4375 299.625 C13.26443359 298.79355469 14.09136719 297.96210938 14.94335938 297.10546875 C16.96455531 295.0725896 18.98336335 293.03740037 21 291 C19.46459519 287.36186925 17.28998399 285.04325025 14.50753784 282.26702881 C14.04847113 281.80625324 13.58940441 281.34547768 13.11642659 280.87073922 C11.57956197 279.33058478 10.03566671 277.79767986 8.49169922 276.26464844 C7.38754038 275.16105383 6.28382192 274.05701847 5.18051147 272.95257568 C2.1851875 269.95667763 -0.81626518 266.96698828 -3.81884623 263.9783659 C-6.95611607 260.85359416 -10.08772728 257.72316198 -13.21994019 254.59332275 C-19.15159078 248.66788962 -25.08832145 242.74757341 -31.02688873 236.82907319 C-37.78770035 230.09061224 -44.54283735 223.34647491 -51.29750085 216.60185194 C-65.19202367 202.72823716 -79.09366648 188.86177554 -93 175 C-91.51731423 171.89335333 -90.02701982 169.79909693 -87.55078125 167.390625 C-86.86693359 166.71773437 -86.18308594 166.04484375 -85.47851562 165.3515625 C-84.40633789 164.31128906 -84.40633789 164.31128906 -83.3125 163.25 C-81.91021981 161.88280931 -80.5104657 160.5130228 -79.11328125 159.140625 C-78.18189331 158.23618652 -78.18189331 158.23618652 -77.23168945 157.31347656 C-75.3888067 155.40305571 -73.66822359 153.46051816 -71.9437561 151.44573975 C-67.72057933 146.60884467 -63.21675812 142.08386718 -58.66821289 137.5546875 C-57.76010864 136.64643723 -56.85200439 135.73818695 -55.91638184 134.80241394 C-53.45009964 132.33584729 -50.98076794 129.87235494 -48.51083684 127.4094429 C-45.92122357 124.82612224 -43.33448157 122.23992961 -40.74742126 119.65405273 C-35.85871683 114.76844431 -30.96747113 109.88538847 -26.07528538 105.00326633 C-20.50129138 99.44048746 -14.93016965 93.87483575 -9.35927594 88.30895233 C2.09064466 76.86945691 13.54412982 65.43353739 25 54 C24.04908839 52.88362719 23.09717814 51.76810496 22.14485168 50.65293884 C21.61486478 50.03164062 21.08487787 49.41034239 20.53883076 48.77021694 C18.61161512 46.55321565 16.5870154 44.45747072 14.51171875 42.37890625 C13.32932617 41.19458008 13.32932617 41.19458008 12.12304688 39.98632812 C11.31931641 39.18646484 10.51558594 38.38660156 9.6875 37.5625 C8.86443359 36.73556641 8.04136719 35.90863281 7.19335938 35.05664062 C6.41154297 34.27611328 5.62972656 33.49558594 4.82421875 32.69140625 C4.11354248 31.98185791 3.40286621 31.27230957 2.6706543 30.54125977 C-0.46425525 27.64915339 -1.26448231 30.145813 -3.89800984 32.76892853 Z M76.39599609 30.37695312 C75.77805176 31.00537109 75.16010742 31.63378906 74.5234375 32.28125 C73.853125 32.95800781 73.1828125 33.63476562 72.4921875 34.33203125 C71.44417969 35.40517578 71.44417969 35.40517578 70.375 36.5 C69.66859375 37.21542969 68.9621875 37.93085937 68.234375 38.66796875 C66.48503999 40.44094342 64.74138878 42.2192302 63 44 C66.7672814 48.49648318 70.64936391 52.7936613 74.8086853 56.92893982 C75.36100787 57.48211681 75.91333043 58.0352938 76.48239005 58.60523373 C78.31321044 60.43768668 80.1475548 62.26656873 81.98193359 64.09545898 C83.3032138 65.41645681 84.62427323 66.73767547 85.94512939 68.05909729 C89.51680508 71.63105897 93.09154768 75.19993683 96.66686201 78.76825595 C100.40825346 82.5033809 104.14679859 86.24135259 107.88565063 89.97901917 C114.9595565 97.04982142 122.03600683 104.11807146 129.11338198 111.18540102 C137.17338816 119.23421591 145.23054283 127.28588269 153.28746295 135.33778656 C169.85514472 151.89502591 186.42639216 168.44869272 203 185 C205.90619135 183.60403514 207.97121766 182.26935799 210.234375 179.9609375 C210.80800781 179.38085938 211.38164062 178.80078125 211.97265625 178.203125 C212.55917969 177.59984375 213.14570313 176.9965625 213.75 176.375 C214.65298828 175.45847656 214.65298828 175.45847656 215.57421875 174.5234375 C217.05405305 173.02011376 218.52764676 171.51065144 220 170 C214.15671683 162.84722455 207.57418289 156.42596189 201.04980469 149.90454102 C199.73178561 148.58352662 198.41397078 147.2623084 197.09634399 145.94090271 C193.5329922 142.36875163 189.96643522 138.79981774 186.39900112 135.23174405 C184.17084814 133.00287906 181.94340918 130.77330308 179.71622467 128.54347038 C171.94875819 120.76676897 164.17872935 112.99263847 156.40625 105.22094727 C149.15454597 97.96984582 141.90845764 90.71316563 134.66493678 83.45389038 C128.44503731 77.22094389 122.22131766 70.99182972 115.99457097 64.76572365 C112.27549065 61.04689884 108.55799552 57.32652184 104.8443222 53.60229683 C101.35869079 50.10703043 97.86835285 46.61653544 94.3742485 43.12973976 C93.08973511 41.84627747 91.8069448 40.56108815 90.52596664 39.27409744 C88.78429877 37.52478166 87.03665891 35.78166617 85.28729248 34.04005432 C84.77582381 33.52344209 84.26435514 33.00682985 83.73738742 32.4745627 C80.3994972 28.7146465 80.3994972 28.7146465 76.39599609 30.37695312 Z M154.56982422 31.203125 C153.55963394 32.21363297 152.55495538 33.22966922 151.5546875 34.25 C151.02481232 34.78270508 150.49493713 35.31541016 149.94900513 35.86425781 C148.25293431 37.5715493 146.56393739 39.28565424 144.875 41 C143.72832287 42.15670449 142.58119314 43.3129605 141.43359375 44.46875 C138.61711208 47.30731703 135.80695678 50.15201506 133 53 C138.20176148 59.30120599 143.90260285 65.03749296 149.68701172 70.80053711 C150.7619897 71.87523258 151.83674666 72.95014917 152.91130066 74.02526855 C155.81151124 76.9257646 158.71478209 79.82317946 161.6186347 82.72002864 C164.65935012 85.75446857 167.69721065 88.79176394 170.73538208 91.82875061 C176.4811883 97.57145584 182.22953758 103.31160843 187.97881711 109.05083615 C194.52736871 115.58818824 201.07306166 122.12839946 207.61852241 128.66884601 C221.07584861 142.11573576 234.53673986 155.55905155 248 169 C242.69550603 175.4367947 236.84774226 181.28679384 230.94580078 187.16772461 C229.83141445 188.28182845 228.71724909 189.39615337 227.60328674 190.51068115 C224.59564178 193.51861168 221.58493528 196.52346052 218.57364893 199.52774501 C215.42082547 202.67429468 212.27085528 205.82369814 209.12057495 208.97279358 C203.16227276 214.92799428 197.20142724 220.88064242 191.23965251 226.83236653 C184.4492683 233.61155279 177.66174138 240.39359681 170.87444711 247.1758765 C156.91946397 261.12042204 142.96091556 275.06139401 129 289 C130.7758666 292.81249879 133.00365188 295.23349496 136.0078125 298.203125 C136.73603714 298.9271048 136.73603714 298.9271048 137.47897339 299.66571045 C139.02299866 301.19858562 140.57384824 302.72434004 142.125 304.25 C143.17624009 305.29120361 144.22702657 306.33286541 145.27734375 307.375 C147.84633004 309.92199464 150.42148161 312.46265177 153 315 C157.5534595 311.18797454 161.89419447 307.24966791 166.08079529 303.03945923 C166.93506209 302.18647407 166.93506209 302.18647407 167.8065868 301.31625688 C169.69431803 299.430159 171.57847761 297.54053498 173.46264648 295.65087891 C174.82305268 294.29019035 176.18367969 292.92972252 177.54450989 291.56945801 C181.22390609 287.89034787 184.90021814 284.20816998 188.57597232 280.52542162 C192.42320672 276.67192186 196.27328675 272.82126733 200.12306213 268.9703064 C207.40635998 261.68390461 214.68710565 254.3949582 221.9669314 247.10508764 C230.25758019 238.80324859 238.55107996 230.50426016 246.84481704 222.20550656 C263.89971247 205.14016797 280.95103549 188.07126367 298 171 C296.15075656 167.05131465 293.6149163 164.16588735 290.63769531 161.02319336 C290.03715961 160.38512977 289.43662392 159.74706617 288.81789017 159.08966732 C278.03369815 147.73017143 266.88263387 136.71758007 255.80906963 125.64181256 C253.78255751 123.6145837 251.75676143 121.58664205 249.7312088 119.55845451 C242.65745721 112.47550955 235.58118738 105.39509215 228.50244141 98.31713867 C221.90949178 91.72479391 215.32218804 85.12684362 208.73739696 78.52635056 C203.06510025 72.84101088 197.38898816 67.15949989 191.70984578 61.48099846 C188.32511428 58.09652214 184.94196096 54.71050391 181.56264496 51.32061958 C178.39864838 48.14699243 175.22995457 44.978134 172.05748558 41.81297684 C170.89229469 40.64883686 169.72882594 39.48297039 168.5671711 38.3153019 C166.98795312 36.72843493 165.40277361 35.14778112 163.81585693 33.56861877 C162.92883968 32.68105676 162.04182243 31.79349474 161.12792587 30.8790369 C158.03485076 28.14773768 157.63316269 28.42599356 154.56982422 31.203125 Z M46.41772461 60.46875 C45.42011108 61.47421875 45.42011108 61.47421875 44.40234375 62.5 C43.68369141 63.221875 42.96503906 63.94375 42.22460938 64.6875 C41.46986328 65.450625 40.71511719 66.21375 39.9375 67 C39.17888672 67.763125 38.42027344 68.52625 37.63867188 69.3125 C35.75687495 71.20613213 33.87744195 73.10205162 32 75 C35.7672814 79.49648318 39.64936391 83.7936613 43.8086853 87.92893982 C44.36100787 88.48211681 44.91333043 89.0352938 45.48239005 89.60523373 C47.31321044 91.43768668 49.1475548 93.26656873 50.98193359 95.09545898 C52.3032138 96.41645681 53.62427323 97.73767547 54.94512939 99.05909729 C58.51680508 102.63105897 62.09154768 106.19993683 65.66686201 109.76825595 C69.40825346 113.5033809 73.14679859 117.24135259 76.88565063 120.97901917 C83.9595565 128.04982142 91.03600683 135.11807146 98.11338198 142.18540102 C106.17338816 150.23421591 114.23054283 158.28588269 122.28746295 166.33778656 C138.85514472 182.89502591 155.42639216 199.44869272 172 216 C174.90619135 214.60403514 176.97121766 213.26935799 179.234375 210.9609375 C179.80800781 210.38085938 180.38164062 209.80078125 180.97265625 209.203125 C181.55917969 208.59984375 182.14570313 207.9965625 182.75 207.375 C183.65298828 206.45847656 183.65298828 206.45847656 184.57421875 205.5234375 C186.05405305 204.02011376 187.52764676 202.51065144 189 201 C187.38811325 196.97610887 184.55071493 194.27415862 181.52720642 191.27996826 C180.96267291 190.71302034 180.3981394 190.14607241 179.81649882 189.56194425 C177.92267792 187.66248527 176.02178959 185.77026203 174.12084961 183.87792969 C172.76216592 182.51817317 171.40391527 181.15798384 170.04606628 179.7973938 C166.3565932 176.10307045 162.66089562 172.41503196 158.96392894 168.7282095 C155.10138056 164.87443478 151.2440952 161.01539897 147.38612366 157.15704346 C140.90885115 150.68070765 134.42771554 144.20825835 127.9440918 137.73828125 C120.43693755 130.24686914 112.93503948 122.75022648 105.43611902 115.25057292 C98.23255316 108.04639784 91.02613955 100.84507888 83.81811714 93.64536285 C80.74516904 90.57595469 77.67308023 87.5056902 74.60163689 84.43477631 C70.99008716 80.82422728 67.37601157 77.21622583 63.75992012 73.61022568 C62.4291081 72.28234701 61.09915383 70.95360808 59.77009583 69.62397385 C57.96430041 67.8176916 56.15548579 66.0144904 54.34580994 64.21209717 C53.81313615 63.67787478 53.28046237 63.1436524 52.73164696 62.59324145 C49.81281698 58.89514465 49.81281698 58.89514465 46.41772461 60.46875 Z M15.32592773 91.56054688 C14.61895752 92.27275391 13.9119873 92.98496094 13.18359375 93.71875 C12.03793945 94.86923828 12.03793945 94.86923828 10.86914062 96.04296875 C10.06669922 96.85378906 9.26425781 97.66460937 8.4375 98.5 C7.63119141 99.31082031 6.82488281 100.12164062 5.99414062 100.95703125 C3.99385566 102.96915222 1.99593222 104.98356271 0 107 C3.7672814 111.49648318 7.64936391 115.7936613 11.8086853 119.92893982 C12.36100787 120.48211681 12.91333043 121.0352938 13.48239005 121.60523373 C15.31321044 123.43768668 17.1475548 125.26656873 18.98193359 127.09545898 C20.3032138 128.41645681 21.62427323 129.73767547 22.94512939 131.05909729 C26.51680508 134.63105897 30.09154768 138.19993683 33.66686201 141.76825595 C37.40825346 145.5033809 41.14679859 149.24135259 44.88565063 152.97901917 C51.9595565 160.04982142 59.03600683 167.11807146 66.11338198 174.18540102 C74.17338816 182.23421591 82.23054283 190.28588269 90.28746295 198.33778656 C106.85514472 214.89502591 123.42639216 231.44869272 140 248 C143.01409306 246.55695686 145.10472016 245.13408132 147.453125 242.7421875 C148.071875 242.11699219 148.690625 241.49179687 149.328125 240.84765625 C149.96234375 240.19667969 150.5965625 239.54570312 151.25 238.875 C151.8996875 238.21628906 152.549375 237.55757812 153.21875 236.87890625 C154.81711727 235.25703357 156.41061897 233.6306719 158 232 C156.38811325 227.97610887 153.55071493 225.27415862 150.52720642 222.27996826 C149.96267291 221.71302034 149.3981394 221.14607241 148.81649882 220.56194425 C146.92267792 218.66248527 145.02178959 216.77026203 143.12084961 214.87792969 C141.76216592 213.51817317 140.40391527 212.15798384 139.04606628 210.7973938 C135.3565932 207.10307045 131.66089562 203.41503196 127.96392894 199.7282095 C124.10138056 195.87443478 120.2440952 192.01539897 116.38612366 188.15704346 C109.90885115 181.68070765 103.42771554 175.20825835 96.9440918 168.73828125 C89.43693755 161.24686914 81.93503948 153.75022648 74.43611902 146.25057292 C67.23255316 139.04639784 60.02613955 131.84507888 52.81811714 124.64536285 C49.74516904 121.57595469 46.67308023 118.5056902 43.60163689 115.43477631 C39.99008716 111.82422728 36.37601157 108.21622583 32.75992012 104.61022568 C31.4291081 103.28234701 30.09915383 101.95360808 28.77009583 100.62397385 C26.96430041 98.8176916 25.15548579 97.0144904 23.34580994 95.21209717 C22.81313615 94.67787478 22.28046237 94.1436524 21.73164696 93.59324145 C18.75677759 89.84550606 18.75677759 89.84550606 15.32592773 91.56054688 Z M-16.67407227 123.56054688 C-17.38104248 124.27275391 -18.0880127 124.98496094 -18.81640625 125.71875 C-19.96206055 126.86923828 -19.96206055 126.86923828 -21.13085938 128.04296875 C-21.93330078 128.85378906 -22.73574219 129.66460937 -23.5625 130.5 C-24.36880859 131.31082031 -25.17511719 132.12164062 -26.00585938 132.95703125 C-28.00614434 134.96915222 -30.00406778 136.98356271 -32 139 C-30.38819302 143.02626565 -27.54717453 145.72653304 -24.52047729 148.72003174 C-23.67261868 149.57045363 -23.67261868 149.57045363 -22.80763161 150.43805575 C-20.91146962 152.33751328 -19.00824535 154.22973195 -17.10498047 156.12207031 C-15.74466731 157.48181937 -14.38479431 158.84200889 -13.02532959 160.2026062 C-9.33168415 163.89682621 -5.63189822 167.58484098 -1.93099737 171.2717905 C1.93497647 175.1252743 5.79529923 178.98441061 9.65621948 182.84295654 C16.96909231 190.14960954 24.28704913 197.45114869 31.6068362 204.75087428 C39.93956153 213.06125631 48.26661851 221.37730811 56.59319901 229.69384623 C73.7224898 246.8022236 90.85890351 263.90345151 108 281 C109.10338218 280.0636169 110.20541029 279.12563812 111.30688477 278.18701172 C112.22764549 277.40377029 112.22764549 277.40377029 113.16700745 276.60470581 C115.87952853 274.23001076 118.41223193 271.69567399 120.9375 269.125 C121.43056641 268.62742187 121.92363281 268.12984375 122.43164062 267.6171875 C123.62345992 266.41379715 124.81208678 265.20724635 126 264 C124.38811325 259.97610887 121.55071493 257.27415862 118.52720642 254.27996826 C117.96267291 253.71302034 117.3981394 253.14607241 116.81649882 252.56194425 C114.92267792 250.66248527 113.02178959 248.77026203 111.12084961 246.87792969 C109.76216592 245.51817317 108.40391527 244.15798384 107.04606628 242.7973938 C103.3565932 239.10307045 99.66089562 235.41503196 95.96392894 231.7282095 C92.10138056 227.87443478 88.2440952 224.01539897 84.38612366 220.15704346 C77.90885115 213.68070765 71.42771554 207.20825835 64.9440918 200.73828125 C57.43693755 193.24686914 49.93503948 185.75022648 42.43611902 178.25057292 C35.23255316 171.04639784 28.02613955 163.84507888 20.81811714 156.64536285 C17.74516904 153.57595469 14.67308023 150.5056902 11.60163689 147.43477631 C7.99008716 143.82422728 4.37601157 140.21622583 0.75992012 136.61022568 C-0.5708919 135.28234701 -1.90084617 133.95360808 -3.22990417 132.62397385 C-5.03569959 130.8176916 -6.84451421 129.0144904 -8.65419006 127.21209717 C-9.18686385 126.67787478 -9.71953763 126.1436524 -10.26835304 125.59324145 C-13.24322241 121.84550606 -13.24322241 121.84550606 -16.67407227 123.56054688 Z M-49.87939453 156.65234375 C-50.62302246 157.40644531 -51.36665039 158.16054687 -52.1328125 158.9375 C-52.93847656 159.74960938 -53.74414062 160.56171875 -54.57421875 161.3984375 C-55.41597656 162.25695312 -56.25773437 163.11546875 -57.125 164 C-57.97449219 164.85851562 -58.82398437 165.71703125 -59.69921875 166.6015625 C-61.80399951 168.72999249 -63.90398833 170.86293959 -66 173 C-64.38819302 177.02626565 -61.54717453 179.72653304 -58.52047729 182.72003174 C-57.67261868 183.57045363 -57.67261868 183.57045363 -56.80763161 184.43805575 C-54.91146962 186.33751328 -53.00824535 188.22973195 -51.10498047 190.12207031 C-49.74466731 191.48181937 -48.38479431 192.84200889 -47.02532959 194.2026062 C-43.33168415 197.89682621 -39.63189822 201.58484098 -35.93099737 205.2717905 C-32.06502353 209.1252743 -28.20470077 212.98441061 -24.34378052 216.84295654 C-17.03090769 224.14960954 -9.71295087 231.45114869 -2.3931638 238.75087428 C5.93956153 247.06125631 14.26661851 255.37730811 22.59319901 263.69384623 C39.7224898 280.8022236 56.85890351 297.90345151 74 315 C75.1257744 314.03966763 76.25089924 313.07857377 77.37574768 312.11715698 C78.00237084 311.58202925 78.62899401 311.04690151 79.27460575 310.49555779 C81.0960176 308.91677272 82.83175527 307.28338127 84.52734375 305.5703125 C85.09130859 305.003125 85.65527344 304.4359375 86.23632812 303.8515625 C86.79771484 303.28179687 87.35910156 302.71203125 87.9375 302.125 C88.52595703 301.53203125 89.11441406 300.9390625 89.72070312 300.328125 C91.14947674 298.88773534 92.57508132 297.4442033 94 296 C88.15671683 288.84722455 81.57418289 282.42596189 75.04980469 275.90454102 C73.73178561 274.58352662 72.41397078 273.2623084 71.09634399 271.94090271 C67.5329922 268.36875163 63.96643522 264.79981774 60.39900112 261.23174405 C58.17084814 259.00287906 55.94340918 256.77330308 53.71622467 254.54347038 C45.94875819 246.76676897 38.17872935 238.99263847 30.40625 231.22094727 C23.15454597 223.96984582 15.90845764 216.71316563 8.66493678 209.45389038 C2.44503731 203.22094389 -3.77868234 196.99182972 -10.00542903 190.76572365 C-13.72450935 187.04689884 -17.44200448 183.32652184 -21.1556778 179.60229683 C-24.64130921 176.10703043 -28.13164715 172.61653544 -31.6257515 169.12973976 C-32.91026489 167.84627747 -34.1930552 166.56108815 -35.47403336 165.27409744 C-37.21570123 163.52478166 -38.96334109 161.78166617 -40.71270752 160.04005432 C-41.22417619 159.52344209 -41.73564486 159.00682985 -42.26261258 158.4745627 C-45.77429286 154.5989537 -45.77429286 154.5989537 -49.87939453 156.65234375 Z " fill="#09BF66" transform="translate(173,78)"/>
<path d="M0 0 C1 3 1 3 0.3125 5.5625 C-1.22878509 8.4248866 -2.14309536 8.65557429 -5 10 C-6.34423339 11.65788785 -7.67618483 13.32576317 -9 15 C-10.02353671 15.87580976 -11.06610981 16.72978053 -12.125 17.5625 C-14.80332714 19.83325562 -15.54840685 20.99312847 -17 24 C-19 25.125 -19 25.125 -21 26 C-21.66 26.66 -22.32 27.32 -23 28 C-23.99 28 -24.98 28 -26 28 C-26.1546875 28.9590625 -26.1546875 28.9590625 -26.3125 29.9375 C-26.539375 30.618125 -26.76625 31.29875 -27 32 C-28.485 32.495 -28.485 32.495 -30 33 C-30 33.66 -30 34.32 -30 35 C-32.475 35.495 -32.475 35.495 -35 36 C-30.88670129 31.09526099 -26.61457539 26.4780472 -22.0703125 21.97265625 C-21.43511688 21.33887558 -20.79992126 20.70509491 -20.14547729 20.05210876 C-18.14101284 18.05318594 -16.13307786 16.05779216 -14.125 14.0625 C-12.75497611 12.69749867 -11.38518226 11.3322664 -10.015625 9.96679688 C-6.67973457 6.64185789 -3.34072964 3.32007647 0 0 Z " fill="#38C784" transform="translate(447,272)"/>
<path d="M0 0 C1.32 0 2.64 0 4 0 C4 0.99 4 1.98 4 3 C5.32 3.33 6.64 3.66 8 4 C8 4.99 8 5.98 8 7 C8.99 7 9.98 7 11 7 C11 7.99 11 8.98 11 10 C11.556875 10.04125 12.11375 10.0825 12.6875 10.125 C15.61402518 11.23233385 16.88632539 13.07893293 18.76171875 15.51171875 C20.0445083 17.17656588 20.0445083 17.17656588 22.3125 18.6875 C22.869375 19.120625 23.42625 19.55375 24 20 C24 20.99 24 21.98 24 23 C24.99 23 25.98 23 27 23 C27 23.99 27 24.98 27 26 C27.556875 26.04125 28.11375 26.0825 28.6875 26.125 C32.34673038 27.50957366 33.76680937 29.80972767 36 33 C35.67 33.99 35.34 34.98 35 36 C30.01198984 31.03725067 25.02783011 26.07065912 20.04638672 21.10131836 C18.34969051 19.40966507 16.65209984 17.71890844 14.95361328 16.02905273 C12.51882518 13.6063321 10.08722431 11.18045288 7.65625 8.75390625 C6.89066772 7.99348526 6.12508545 7.23306427 5.33630371 6.44960022 C4.63557739 5.74894943 3.93485107 5.04829865 3.21289062 4.32641602 C2.59111938 3.70686539 1.96934814 3.08731476 1.32873535 2.44898987 C0 1 0 1 0 0 Z " fill="#2ABB77" transform="translate(400,175)"/>
<path d="M0 0 C1.65 0 3.3 0 5 0 C0.76183463 5.06623768 -3.67408963 9.80038069 -8.375 14.4375 C-9.01566406 15.07365234 -9.65632812 15.70980469 -10.31640625 16.36523438 C-11.87530879 17.91250332 -13.43651416 19.45736492 -15 21 C-15.66 20.34 -16.32 19.68 -17 19 C-17 18.34 -17 17.68 -17 17 C-15.68 17 -14.36 17 -13 17 C-13.33 15.68 -13.66 14.36 -14 13 C-13.34 13 -12.68 13 -12 13 C-11.67 10.69 -11.34 8.38 -11 6 C-10.01 5.67 -9.02 5.34 -8 5 C-8 5.99 -8 6.98 -8 8 C-7.01 8 -6.02 8 -5 8 C-5 6.68 -5 5.36 -5 4 C-4.360625 3.71125 -3.72125 3.4225 -3.0625 3.125 C-0.84793921 2.17176549 -0.84793921 2.17176549 0 0 Z " fill="#34C681" transform="translate(185,401)"/>
<path d="M0 0 C3.66752005 1.5391801 5.98580573 3.75485452 8.765625 6.5703125 C9.65507812 7.46621094 10.54453125 8.36210938 11.4609375 9.28515625 C12.38132812 10.22230469 13.30171875 11.15945312 14.25 12.125 C15.19484856 13.07988637 16.14015633 14.03431859 17.0859375 14.98828125 C19.39518338 17.32109087 21.69963203 19.65844086 24 22 C22.68 22.33 21.36 22.66 20 23 C19.67 21.68 19.34 20.36 19 19 C18.21625 18.896875 17.4325 18.79375 16.625 18.6875 C14 18 14 18 12 15 C11.34 14.34 10.68 13.68 10 13 C10.33 12.34 10.66 11.68 11 11 C10.195625 10.87625 9.39125 10.7525 8.5625 10.625 C7.716875 10.41875 6.87125 10.2125 6 10 C5.67 9.34 5.34 8.68 5 8 C4.01 8 3.02 8 2 8 C2 6.35 2 4.7 2 3 C0.02 3.66 -1.96 4.32 -4 5 C-2.68 3.35 -1.36 1.7 0 0 Z " fill="#50CB93" transform="translate(330,78)"/>
<path d="M0 0 C0.99 0.33 1.98 0.66 3 1 C3 4 3 4 1.8125 5.3125 C1.214375 5.869375 0.61625 6.42625 0 7 C-0.86150298 8.05656025 -1.71515856 9.11954896 -2.5625 10.1875 C-3.7690625 11.5796875 -3.7690625 11.5796875 -5 13 C-5.66 13 -6.32 13 -7 13 C-7.0825 13.78375 -7.165 14.5675 -7.25 15.375 C-8 18 -8 18 -9.75 19.0625 C-10.86375 19.5265625 -10.86375 19.5265625 -12 20 C-12.804375 20.66 -13.60875 21.32 -14.4375 22 C-16.91928137 23.93700009 -19.04163782 24.98570439 -22 26 C-16.84228673 19.78471145 -11.21768722 14.19797302 -5.39453125 8.609375 C-4.69972656 7.92875 -4.00492187 7.248125 -3.2890625 6.546875 C-2.65693848 5.93682617 -2.02481445 5.32677734 -1.37353516 4.69824219 C0.31442866 2.975269 0.31442866 2.975269 0 0 Z " fill="#3FC888" transform="translate(470,246)"/>
<path d="M0 0 C0.66 0.99 1.32 1.98 2 3 C0.1875 5 0.1875 5 -2 7 C-2.99 7 -3.98 7 -5 7 C-5.12375 7.61875 -5.2475 8.2375 -5.375 8.875 C-6 11 -6 11 -8 13 C-8.66 13 -9.32 13 -10 13 C-10.103125 13.639375 -10.20625 14.27875 -10.3125 14.9375 C-10.539375 15.618125 -10.76625 16.29875 -11 17 C-11.99 17.33 -12.98 17.66 -14 18 C-14.33 18.99 -14.66 19.98 -15 21 C-18.37867647 23.46552067 -19.70558202 24 -24 24 C-22.61978211 21.23956422 -20.38130629 19.74859384 -18.05419922 17.79199219 C-14.37896336 14.58587961 -10.98912773 11.09238359 -7.5625 7.625 C-6.83095703 6.88894531 -6.09941406 6.15289062 -5.34570312 5.39453125 C-3.56147277 3.59863926 -1.77963876 1.80044015 0 0 Z " fill="#4BCC8F" transform="translate(314,94)"/>
<path d="M0 0 C0 5.17240367 -3.5530264 8.6551651 -7.015625 12.2109375 C-8.08861821 13.27084543 -9.16681866 14.32550611 -10.25 15.375 C-10.80429687 15.92027344 -11.35859375 16.46554687 -11.9296875 17.02734375 C-13.28188731 18.35622977 -14.6403035 19.67878548 -16 21 C-16.99 20.34 -17.98 19.68 -19 19 C-12.73 12.73 -6.46 6.46 0 0 Z " fill="#27C27A" transform="translate(403,316)"/>
<path d="M0 0 C0 1.32 0 2.64 0 4 C-0.99 4 -1.98 4 -3 4 C-3.20625 4.721875 -3.4125 5.44375 -3.625 6.1875 C-5.50917059 10.0414853 -7.44617527 11.58339918 -11 14 C-13.1953125 13.6328125 -13.1953125 13.6328125 -15 13 C-5.61290323 0 -5.61290323 0 0 0 Z " fill="#01BF62" transform="translate(399,248)"/>
<path d="M0 0 C0.33 0.66 0.66 1.32 1 2 C-0.1875 4.25 -0.1875 4.25 -2 7 C-2.5775 8.03125 -3.155 9.0625 -3.75 10.125 C-5.93766213 12.92034605 -6.58947913 13.47743459 -9.6875 14.6875 C-10.780625 15.120625 -11.87375 15.55375 -13 16 C-13.33 16.99 -13.66 17.98 -14 19 C-16.0625 19.6875 -16.0625 19.6875 -18 20 C-12.80029729 12.48931831 -6.52800875 6.33787257 0 0 Z " fill="#2CBE7A" transform="translate(113,216)"/>
<path d="M0 0 C0.33 0.66 0.66 1.32 1 2 C-0.97233721 6.05424872 -3.65901948 9.00168415 -7 12 C-7.66 12 -8.32 12 -9 12 C-9.33 12.99 -9.66 13.98 -10 15 C-12.29167646 17.9791794 -14.33535945 18.5047783 -18 19 C-12.44964797 12.21623641 -6.23557973 6.14477032 0 0 Z " fill="#2EBF7B" transform="translate(56,195)"/>
<path d="M0 0 C0 4.05345102 -1.58160112 5.8215329 -4 9 C-4.99 9.33 -5.98 9.66 -7 10 C-7.639375 10.969375 -8.27875 11.93875 -8.9375 12.9375 C-11.01638795 16.02433362 -11.82254317 16.51718681 -15 18 C-15.28875 18.66 -15.5775 19.32 -15.875 20 C-17 22 -17 22 -20.125 23.25 C-21.07375 23.4975 -22.0225 23.745 -23 24 C-18.32533663 18.37696243 -13.32234333 13.20258446 -8.125 8.0625 C-7.34125 7.28326172 -6.5575 6.50402344 -5.75 5.70117188 C-3.83561419 3.79845915 -1.91891966 1.89813829 0 0 Z " fill="#7AD8AD" transform="translate(137,192)"/>
<path d="M0 0 C5.66129431 4.69766975 10.85228904 9.74723372 16 15 C14 16 14 16 11.5 15.25 C9 14 9 14 7 11 C7 10.01 7 9.02 7 8 C5.824375 8.0928125 5.824375 8.0928125 4.625 8.1875 C3.325625 8.0946875 3.325625 8.0946875 2 8 C-0.1519437 4.77208445 -0.20086443 3.71599191 0 0 Z " fill="#32C480" transform="translate(274,223)"/>
<path d="M0 0 C0.61328125 1.87890625 0.61328125 1.87890625 1 4 C-0.28817344 5.37701298 -1.62804426 6.70644173 -3 8 C-3.33 8.886875 -3.66 9.77375 -4 10.6875 C-4.33 11.450625 -4.66 12.21375 -5 13 C-6.75 13.6875 -6.75 13.6875 -9 14 C-11.00382009 14.65509503 -13.00458132 15.31974363 -15 16 C-10.30233025 10.33870569 -5.25276628 5.14771096 0 0 Z " fill="#3CC787" transform="translate(240,89)"/>
<path d="M0 0 C0.33 0.66 0.66 1.32 1 2 C-0.15939866 4.99511322 -1.71433199 6.8022423 -4 9 C-4.598125 9.86625 -5.19625 10.7325 -5.8125 11.625 C-8.4839494 14.52543078 -10.14347365 14.73705502 -14 15 C-9.59156563 9.70987876 -4.92440206 4.81191572 0 0 Z " fill="#25BD75" transform="translate(190,372)"/>
<path d="M0 0 C5.66129431 4.69766975 10.85228904 9.74723372 16 15 C14.171875 15.60546875 14.171875 15.60546875 12 16 C9.25 14.3125 9.25 14.3125 7 12 C7 10.68 7 9.36 7 8 C5.68 8 4.36 8 3 8 C0 2.25 0 2.25 0 0 Z " fill="#49CA8E" transform="translate(194,207)"/>
<path d="M0 0 C0.66 0.99 1.32 1.98 2 3 C1.4225 3.185625 0.845 3.37125 0.25 3.5625 C-3.10427843 5.70551122 -4.17907996 8.48822563 -6 12 C-6.66 12 -7.32 12 -8 12 C-8 12.66 -8 13.32 -8 14 C-10.31 14.66 -12.62 15.32 -15 16 C-10.30233025 10.33870569 -5.25276628 5.14771096 0 0 Z " fill="#5ECF9D" transform="translate(155,174)"/>
<path d="M0 0 C0.33 0.99 0.66 1.98 1 3 C-3.75 7 -3.75 7 -6 7 C-6.66 8.65 -7.32 10.3 -8 12 C-8.99 11.67 -9.98 11.34 -11 11 C-6.32304038 0 -6.32304038 0 0 0 Z " fill="#02BE62" transform="translate(262,384)"/>
<path d="M0 0 C5.66129431 4.69766975 10.85228904 9.74723372 16 15 C15.01 15.495 15.01 15.495 14 16 C11.96855359 15.06553465 9.96466413 14.06775224 8 13 C8 12.01 8 11.02 8 10 C7.34 10 6.68 10 6 10 C6 9.01 6 8.02 6 7 C5.38125 6.87625 4.7625 6.7525 4.125 6.625 C2 6 2 6 0 4 C0 2.68 0 1.36 0 0 Z " fill="#60CF9D" transform="translate(378,125)"/>
<path d="M0 0 C1.98 0.66 3.96 1.32 6 2 C6.33 3.65 6.66 5.3 7 7 C6.34 7 5.68 7 5 7 C5 7.66 5 8.32 5 9 C4.34 9 3.68 9 3 9 C2.67 9.66 2.34 10.32 2 11 C1.34 10.67 0.68 10.34 0 10 C0.33 9.34 0.66 8.68 1 8 C0.34 7.67 -0.32 7.34 -1 7 C-0.67 4.69 -0.34 2.38 0 0 Z " fill="#01BD60" transform="translate(490,242)"/>
<path d="M0 0 C5.29012124 4.40843437 10.18808428 9.07559794 15 14 C13 15 13 15 10.5 14.375 C8 13 8 13 7.0625 10.5 C6.19645648 7.6554134 6.19645648 7.6554134 2.875 6.6875 C1.92625 6.460625 0.9775 6.23375 0 6 C0 4.02 0 2.04 0 0 Z " fill="#39C584" transform="translate(259,208)"/>
<path d="M0 0 C0 4.04826998 -1.62245231 6.83475414 -4 10 C-7.1875 12.3125 -7.1875 12.3125 -10 14 C-10.33 14.66 -10.66 15.32 -11 16 C-12.32 15.67 -13.64 15.34 -15 15 C-10.05 10.05 -5.1 5.1 0 0 Z " fill="#4ACC8F" transform="translate(371,348)"/>
<path d="M0 0 C0.928125 0.165 1.85625 0.33 2.8125 0.5 C5.95621353 1.07748388 5.95621353 1.07748388 9 1 C9 2.32 9 3.64 9 5 C9.515625 5.495 10.03125 5.99 10.5625 6.5 C11.036875 6.995 11.51125 7.49 12 8 C11.58984375 10.09375 11.58984375 10.09375 11 12 C9.16364422 10.19047409 7.33083792 8.37759362 5.5 6.5625 C4.97535156 6.04623047 4.45070313 5.52996094 3.91015625 4.99804688 C2.58775448 3.68423213 1.29164432 2.34406495 0 1 C0 0.67 0 0.34 0 0 Z " fill="#2CC27C" transform="translate(333,248)"/>
<path d="M0 0 C0.66 0.66 1.32 1.32 2 2 C1.34 2.66 0.68 3.32 0 4 C-0.33 4.66 -0.66 5.32 -1 6 C-1.66 6 -2.32 6 -3 6 C-3.20625 6.556875 -3.4125 7.11375 -3.625 7.6875 C-5.55000774 10.92501302 -8.03850902 12.68231141 -11 15 C-11.66 14.34 -12.32 13.68 -13 13 C-8.71 8.71 -4.42 4.42 0 0 Z " fill="#30C07D" transform="translate(173,78)"/>
<path d="M0 0 C0 3.15084005 -0.45473667 4.33871316 -2 7 C-2.66 7.66 -3.32 8.32 -4 9 C-5.2065625 10.2684375 -5.2065625 10.2684375 -6.4375 11.5625 C-9 14 -9 14 -12 15 C-11.58685438 10.55073948 -8.49538473 8.15899896 -5.4375 5.25 C-4.91736328 4.74339844 -4.39722656 4.23679687 -3.86132812 3.71484375 C-2.58089916 2.46965595 -1.29132446 1.23388498 0 0 Z " fill="#22BC73" transform="translate(159,92)"/>
<path d="M0 0 C2.97064418 0.99021473 4.68806023 1.92722641 7 4 C7 4.99 7 5.98 7 7 C7.99 7.33 8.98 7.66 10 8 C10 8.99 10 9.98 10 11 C11.32 10.67 12.64 10.34 14 10 C13.67 11.65 13.34 13.3 13 15 C8.08064098 10.88380164 3.47352044 6.59589638 -1 2 C-0.67 1.34 -0.34 0.68 0 0 Z " fill="#4CCC91" transform="translate(174,105)"/>
<path d="M0 0 C0.2475 0.9075 0.495 1.815 0.75 2.75 C2.03981342 6.10351489 3.31971042 7.67708236 6 10 C5.67 10.99 5.34 11.98 5 13 C1.37 9.37 -2.26 5.74 -6 2 C-2 0 -2 0 0 0 Z " fill="#4FCA91" transform="translate(309,217)"/>
<path d="M0 0 C2.875 0.1875 2.875 0.1875 6 1 C7.125 3.5 7.125 3.5 8 6 C10.04105639 6.88693303 10.04105639 6.88693303 12 7 C12.66 9.31 13.32 11.62 14 14 C9.10565787 9.90473413 4.29279666 5.73642915 0 1 C0 0.67 0 0.34 0 0 Z " fill="#50CE93" transform="translate(308,403)"/>
<path d="M0 0 C1.65 0 3.3 0 5 0 C5.33 1.65 5.66 3.3 6 5 C7.32 5.33 8.64 5.66 10 6 C10 6.99 10 7.98 10 9 C10.99 8.67 11.98 8.34 13 8 C13.33 9.98 13.66 11.96 14 14 C9.10565787 9.90473413 4.29279666 5.73642915 0 1 C0 0.67 0 0.34 0 0 Z " fill="#3EC485" transform="translate(223,264)"/>
<path d="M0 0 C1.32 0.66 2.64 1.32 4 2 C3.36191406 2.61488281 2.72382813 3.22976562 2.06640625 3.86328125 C0.82697266 5.07564453 0.82697266 5.07564453 -0.4375 6.3125 C-1.26121094 7.11300781 -2.08492188 7.91351563 -2.93359375 8.73828125 C-5.19403477 10.90470808 -5.19403477 10.90470808 -6 14 C-6.33 14 -6.66 14 -7 14 C-6.51058824 6.65882353 -6.51058824 6.65882353 -4.0625 3.5 C-2 2 -2 2 0 2 C0 1.34 0 0.68 0 0 Z " fill="#3BC785" transform="translate(312,120)"/>
<path d="M0 0 C1.65 0 3.3 0 5 0 C1.32167983 4.52615993 -2.41086363 8.39424999 -7 12 C-7 10.68 -7 9.36 -7 8 C-6.34 8 -5.68 8 -5 8 C-5 6.68 -5 5.36 -5 4 C-4.360625 3.71125 -3.72125 3.4225 -3.0625 3.125 C-0.84793921 2.17176549 -0.84793921 2.17176549 0 0 Z " fill="#4DCB91" transform="translate(185,401)"/>
<path d="M0 0 C0.99 0.33 1.98 0.66 3 1 C1.0238076 3.00301854 -0.95574474 5.00249867 -2.9375 7 C-3.50146484 7.57234375 -4.06542969 8.1446875 -4.64648438 8.734375 C-6.07878776 10.17525505 -7.53741129 11.58987143 -9 13 C-9.33 13 -9.66 13 -10 13 C-10.36275695 8.52599758 -10.36275695 8.52599758 -8.75 6.1875 C-7 5 -7 5 -3 5 C-3 4.34 -3 3.68 -3 3 C-2.34 3 -1.68 3 -1 3 C-0.67 2.01 -0.34 1.02 0 0 Z " fill="#41C888" transform="translate(477,268)"/>
<path d="M0 0 C4.87169618 3.99479086 9.04248205 8.10021587 13 13 C12.01 13.495 12.01 13.495 11 14 C11 13.34 11 12.68 11 12 C9.35 11.67 7.7 11.34 6 11 C6 9.68 6 8.36 6 7 C4.68 7.33 3.36 7.66 2 8 C1.34 5.36 0.68 2.72 0 0 Z " fill="#42C889" transform="translate(319,145)"/>
<path d="M0 0 C1.093125 0.37125 2.18625 0.7425 3.3125 1.125 C4.529375 1.41375 5.74625 1.7025 7 2 C7.99 1.34 8.98 0.68 10 0 C10 1.32 10 2.64 10 4 C10.66 4 11.32 4 12 4 C12 4.66 12 5.32 12 6 C11.34 6.66 10.68 7.32 10 8 C7.35263407 7.79014782 6.22213739 7.21245709 4.296875 5.37109375 C3.78640625 4.73300781 3.2759375 4.09492188 2.75 3.4375 C2.22921875 2.79683594 1.7084375 2.15617187 1.171875 1.49609375 C0.78515625 1.00238281 0.3984375 0.50867188 0 0 Z " fill="#1DBC6F" transform="translate(160,412)"/>
<path d="M0 0 C0.99 0.66 1.98 1.32 3 2 C-0.96 5.96 -4.92 9.92 -9 14 C-9.33 12.68 -9.66 11.36 -10 10 C-8.68 9.67 -7.36 9.34 -6 9 C-6 8.01 -6 7.02 -6 6 C-5.01 6 -4.02 6 -3 6 C-2.814375 5.071875 -2.814375 5.071875 -2.625 4.125 C-2 2 -2 2 0 0 Z " fill="#36C281" transform="translate(326,339)"/>
<path d="M0 0 C0.99 0.33 1.98 0.66 3 1 C-0.96 4.96 -4.92 8.92 -9 13 C-9.33 11.68 -9.66 10.36 -10 9 C-9.34 9 -8.68 9 -8 9 C-8.33 8.01 -8.66 7.02 -9 6 C-7.02 5.67 -5.04 5.34 -3 5 C-3 4.34 -3 3.68 -3 3 C-2.34 3 -1.68 3 -1 3 C-0.67 2.01 -0.34 1.02 0 0 Z " fill="#43C889" transform="translate(461,284)"/>
<path d="M0 0 C0.99 0.33 1.98 0.66 3 1 C3 4 3 4 1.8125 5.3125 C1.214375 5.869375 0.61625 6.42625 0 7 C-0.78375 8.03125 -1.5675 9.0625 -2.375 10.125 C-5.08342012 13.09136489 -6.0909364 13.77662494 -10 14 C-4.50146628 7.47507331 -4.50146628 7.47507331 -1.625 4.75 C0.34022555 3.03162353 0.34022555 3.03162353 0 0 Z " fill="#51CC92" transform="translate(470,246)"/>
<path d="M0 0 C0.33 1.32 0.66 2.64 1 4 C0.01 4.33 -0.98 4.66 -2 5 C-2.28875 5.598125 -2.5775 6.19625 -2.875 6.8125 C-4.38908842 9.75656081 -6.25645329 11.19327412 -9 13 C-9.99 12.67 -10.98 12.34 -12 12 C-8.04 8.04 -4.08 4.08 0 0 Z " fill="#2FBE7C" transform="translate(123,128)"/>
<path d="M0 0 C1.32 0.66 2.64 1.32 4 2 C0.37 5.63 -3.26 9.26 -7 13 C-7.33 12.01 -7.66 11.02 -8 10 C-7.01 9.67 -6.02 9.34 -5 9 C-5 7.68 -5 6.36 -5 5 C-2.5 2.25 -2.5 2.25 0 0 Z " fill="#39C683" transform="translate(325,107)"/>
<path d="M0 0 C2.78211944 0.37596209 4.5879284 0.67318459 6.8125 2.4375 C8 4 8 4 8 6 C9.32 6.33 10.64 6.66 12 7 C11.67 8.32 11.34 9.64 11 11 C9 11 9 11 7.34375 9.35546875 C6.7353125 8.64003906 6.126875 7.92460937 5.5 7.1875 C4.8915625 6.47980469 4.283125 5.77210938 3.65625 5.04296875 C2 3 2 3 0 0 Z " fill="#46C98C" transform="translate(353,268)"/>
<path d="M0 0 C1.32 0 2.64 0 4 0 C4 0.99 4 1.98 4 3 C5.32 3 6.64 3 8 3 C8.28875 3.639375 8.5775 4.27875 8.875 4.9375 C9.82823451 7.15206079 9.82823451 7.15206079 12 8 C11.67 9.32 11.34 10.64 11 12 C9.16364422 10.19047409 7.33083792 8.37759362 5.5 6.5625 C4.97535156 6.04623047 4.45070312 5.52996094 3.91015625 4.99804688 C2.58775448 3.68423213 1.29164432 2.34406495 0 1 C0 0.67 0 0.34 0 0 Z " fill="#5BCD9A" transform="translate(188,294)"/>
<path d="M0 0 C0.8125 1.625 0.8125 1.625 1 4 C-1.3125 7.25 -1.3125 7.25 -4 10 C-4.66 10 -5.32 10 -6 10 C-6 10.66 -6 11.32 -6 12 C-7.32 11.67 -8.64 11.34 -10 11 C-9.36191406 10.37351562 -8.72382813 9.74703125 -8.06640625 9.1015625 C-7.24011719 8.28429687 -6.41382813 7.46703125 -5.5625 6.625 C-4.73878906 5.81289063 -3.91507812 5.00078125 -3.06640625 4.1640625 C-0.96565328 2.17651485 -0.96565328 2.17651485 0 0 Z " fill="#5ACE9A" transform="translate(331,308)"/>
<path d="M0 0 C1.32 0.99 2.64 1.98 4 3 C2.61811547 6.21043882 1.07578097 8.04936365 -1.625 10.25 C-2.25664062 10.77078125 -2.88828125 11.2915625 -3.5390625 11.828125 C-4.02117187 12.21484375 -4.50328125 12.6015625 -5 13 C-5.33 11.35 -5.66 9.7 -6 8 C-4.35 7.67 -2.7 7.34 -1 7 C-1 6.34 -1 5.68 -1 5 C-0.34 5 0.32 5 1 5 C0.67 3.35 0.34 1.7 0 0 Z " fill="#41C586" transform="translate(496,244)"/>
<path d="M0 0 C2.9375 0.75 2.9375 0.75 6 2 C6.875 4.125 6.875 4.125 7 6 C8.98 6 10.96 6 13 6 C12.34 7.65 11.68 9.3 11 11 C6.86378916 7.6189962 3.18683431 4.33409466 0 0 Z " fill="#3CC786" transform="translate(262,116)"/>
<path d="M0 0 C0.99 0.99 1.98 1.98 3 3 C1.68 4.65 0.36 6.3 -1 8 C-2.32 7.67 -3.64 7.34 -5 7 C-4.67 5.35 -4.34 3.7 -4 2 C-2.68 2 -1.36 2 0 2 C0 1.34 0 0.68 0 0 Z " fill="#04BD63" transform="translate(325,318)"/>
<path d="M0 0 C1.43088528 2.86177057 0.59991697 4.93375773 0 8 C-1.65 7.67 -3.3 7.34 -5 7 C-5.33 7.99 -5.66 8.98 -6 10 C-8.0625 10.6875 -8.0625 10.6875 -10 11 C-6.79239749 7.19364503 -3.59253891 3.45436433 0 0 Z " fill="#27BB76" transform="translate(94,236)"/>
<path d="M0 0 C0 3.10551666 -0.5393715 4.35261084 -2 7 C-2.99 7 -3.98 7 -5 7 C-5.04125 7.61875 -5.0825 8.2375 -5.125 8.875 C-5.41375 9.57625 -5.7025 10.2775 -6 11 C-9.0625 12.25 -9.0625 12.25 -12 13 C-8.19524578 8.43969176 -4.25030379 4.14910608 0 0 Z " fill="#67D1A2" transform="translate(176,153)"/>
<path d="M0 0 C5.75 1.75 5.75 1.75 8 4 C8 4.66 8 5.32 8 6 C9.32 6.66 10.64 7.32 12 8 C11.67 9.32 11.34 10.64 11 12 C9.16364422 10.19047409 7.33083792 8.37759362 5.5 6.5625 C4.97535156 6.04623047 4.45070313 5.52996094 3.91015625 4.99804688 C2.58775448 3.68423213 1.29164432 2.34406495 0 1 C0 0.67 0 0.34 0 0 Z " fill="#30BD7A" transform="translate(370,145)"/>
<path d="M0 0 C5.75 1.75 5.75 1.75 8 4 C8 4.66 8 5.32 8 6 C9.32 6.66 10.64 7.32 12 8 C11.67 9.32 11.34 10.64 11 12 C9.16364422 10.19047409 7.33083792 8.37759362 5.5 6.5625 C4.97535156 6.04623047 4.45070313 5.52996094 3.91015625 4.99804688 C2.58775448 3.68423213 1.29164432 2.34406495 0 1 C0 0.67 0 0.34 0 0 Z " fill="#31BD7B" transform="translate(354,129)"/>
<path d="M0 0 C2.97 0.33 5.94 0.66 9 1 C9 4.10551666 8.4606285 5.35261084 7 8 C5.83035398 6.8572081 4.66435444 5.71068285 3.5 4.5625 C2.8503125 3.92441406 2.200625 3.28632813 1.53125 2.62890625 C0 1 0 1 0 0 Z " fill="#40C98A" transform="translate(253,168)"/>
<path d="M0 0 C2.97 0.33 5.94 0.66 9 1 C9 4.10551666 8.4606285 5.35261084 7 8 C5.83035398 6.8572081 4.66435444 5.71068285 3.5 4.5625 C2.8503125 3.92441406 2.200625 3.28632813 1.53125 2.62890625 C0 1 0 1 0 0 Z " fill="#41C88A" transform="translate(237,152)"/>
<path d="M0 0 C2.97 0.495 2.97 0.495 6 1 C6 1.99 6 2.98 6 4 C7.32 4.33 8.64 4.66 10 5 C10 6.65 10 8.3 10 10 C2.51708428 3.84965831 2.51708428 3.84965831 0 0 Z " fill="#40C889" transform="translate(187,120)"/>
<path d="M0 0 C0.66 0.99 1.32 1.98 2 3 C0.1875 5 0.1875 5 -2 7 C-2.99 7 -3.98 7 -5 7 C-5.12375 7.61875 -5.2475 8.2375 -5.375 8.875 C-6 11 -6 11 -8 13 C-7.88759583 8.3914291 -6.61543768 6.27090202 -3.4375 3.125 C-2.30330262 2.07067568 -1.16107206 1.02465367 0 0 Z " fill="#3BC785" transform="translate(314,94)"/>
<path d="M0 0 C0.66 0.33 1.32 0.66 2 1 C2.33333333 3.33333333 2.66666667 5.66666667 3 8 C3.66 8.33 4.32 8.66 5 9 C4.67 9.99 4.34 10.98 4 12 C1.69 9.69 -0.62 7.38 -3 5 C-2.67 4.01 -2.34 3.02 -2 2 C-1.34 2 -0.68 2 0 2 C0 1.34 0 0.68 0 0 Z " fill="#44CB8D" transform="translate(235,402)"/>
<path d="M0 0 C1.32 0.66 2.64 1.32 4 2 C4 3.32 4 4.64 4 6 C0.89953913 7.03348696 -0.05610218 7.17755913 -3 6 C-3.33 5.01 -3.66 4.02 -4 3 C-2.68 2.67 -1.36 2.34 0 2 C0 1.34 0 0.68 0 0 Z " fill="#04BB62" transform="translate(299,385)"/>
<path d="M0 0 C0.66 0.99 1.32 1.98 2 3 C-1.08632611 6.2626876 -3.93483504 9.02235218 -8 11 C-8.66 10.67 -9.32 10.34 -10 10 C-6.7 6.7 -3.4 3.4 0 0 Z " fill="#36C07F" transform="translate(16,235)"/>
<path d="M0 0 C0 4.09939665 -1.52298101 5.78656995 -4 9 C-6.625 10.9375 -6.625 10.9375 -9 12 C-9.66 11.67 -10.32 11.34 -11 11 C-7.37 7.37 -3.74 3.74 0 0 Z " fill="#58CE96" transform="translate(339,380)"/>
<path d="M0 0 C2.00720923 0.28674418 4.0085944 0.61866701 6 1 C5.02433888 2.16959987 4.044375 3.33561177 3.0625 4.5 C2.51722656 5.1496875 1.97195313 5.799375 1.41015625 6.46875 C0.94480469 6.9740625 0.47945313 7.479375 0 8 C-0.33 8 -0.66 8 -1 8 C-1.04241723 5.66705225 -1.04092937 3.33297433 -1 1 C-0.67 0.67 -0.34 0.34 0 0 Z " fill="#2DC57D" transform="translate(395,346)"/>
<path d="M0 0 C2.00720923 0.28674418 4.0085944 0.61866701 6 1 C5.02433888 2.16959987 4.044375 3.33561177 3.0625 4.5 C2.51722656 5.1496875 1.97195313 5.799375 1.41015625 6.46875 C0.94480469 6.9740625 0.47945313 7.479375 0 8 C-0.33 8 -0.66 8 -1 8 C-1.04241723 5.66705225 -1.04092937 3.33297433 -1 1 C-0.67 0.67 -0.34 0.34 0 0 Z " fill="#2DC67E" transform="translate(411,330)"/>
<path d="M0 0 C2.00720923 0.28674418 4.0085944 0.61866701 6 1 C5.02433888 2.16959987 4.044375 3.33561177 3.0625 4.5 C2.51722656 5.1496875 1.97195313 5.799375 1.41015625 6.46875 C0.94480469 6.9740625 0.47945313 7.479375 0 8 C-0.33 8 -0.66 8 -1 8 C-1.04241723 5.66705225 -1.04092937 3.33297433 -1 1 C-0.67 0.67 -0.34 0.34 0 0 Z " fill="#2DC67E" transform="translate(427,314)"/>
<path d="M0 0 C0.33 1.32 0.66 2.64 1 4 C2.32 4 3.64 4 5 4 C6.0625 5.8125 6.0625 5.8125 7 8 C6.67 8.99 6.34 9.98 6 11 C3.03 8.03 0.06 5.06 -3 2 C-2.01 1.34 -1.02 0.68 0 0 Z " fill="#5ACE99" transform="translate(175,277)"/>
<path d="M0 0 C0.33 0.66 0.66 1.32 1 2 C-0.92529733 6.17147755 -3.04186487 7.82302568 -7 10 C-8.75149165 11.58245275 -8.75149165 11.58245275 -10 13 C-10.66 12.67 -11.32 12.34 -12 12 C-8.04 8.04 -4.08 4.08 0 0 Z " fill="#7AD9AE" transform="translate(113,216)"/>
<path d="M0 0 C1.32 0.66 2.64 1.32 4 2 C1.69 4.31 -0.62 6.62 -3 9 C-3.66 7.68 -4.32 6.36 -5 5 C-4.34 4.01 -3.68 3.02 -3 2 C-2.01 2 -1.02 2 0 2 C0 1.34 0 0.68 0 0 Z " fill="#4FCD93" transform="translate(197,389)"/>
<path d="M0 0 C2.97 0.495 2.97 0.495 6 1 C6 2.32 6 3.64 6 5 C7.32 5.33 8.64 5.66 10 6 C9.67 7.32 9.34 8.64 9 10 C7.49702124 8.52386015 5.99768715 7.04400843 4.5 5.5625 C3.6646875 4.73878906 2.829375 3.91507813 1.96875 3.06640625 C0 1 0 1 0 0 Z " fill="#49C98C" transform="translate(271,248)"/>
<path d="M0 0 C7.48291572 6.15034169 7.48291572 6.15034169 10 10 C8.35 9.67 6.7 9.34 5 9 C5 8.34 5 7.68 5 7 C4.01 6.67 3.02 6.34 2 6 C1.34 5.34 0.68 4.68 0 4 C0 2.68 0 1.36 0 0 Z " fill="#65D0A0" transform="translate(474,221)"/>
<path d="M0 0 C7.48291572 6.15034169 7.48291572 6.15034169 10 10 C8.68 10 7.36 10 6 10 C6 9.01 6 8.02 6 7 C5.38125 6.87625 4.7625 6.7525 4.125 6.625 C2 6 2 6 0 4 C0 2.68 0 1.36 0 0 Z " fill="#61CF9D" transform="translate(362,109)"/>
<path d="M0 0 C1.17539996 0.92652701 2.34010577 1.86663387 3.5 2.8125 C4.1496875 3.33457031 4.799375 3.85664062 5.46875 4.39453125 C7 6 7 6 7 9 C4.03 8.505 4.03 8.505 1 8 C0 2.25 0 2.25 0 0 Z " fill="#38C884" transform="translate(282,108)"/>
<path d="M0 0 C0.33 1.32 0.66 2.64 1 4 C-1.96283313 6.38672669 -4.94270509 8.7353371 -8 11 C-8.66 10.67 -9.32 10.34 -10 10 C-6.7 6.7 -3.4 3.4 0 0 Z " fill="#56CD95" transform="translate(325,83)"/>
<path d="M0 0 C0.82638376 2.89234315 1 4.88742431 1 8 C-0.65 8 -2.3 8 -4 8 C-4.25 5.6875 -4.25 5.6875 -4 3 C-2 1.1875 -2 1.1875 0 0 Z " fill="#03BC62" transform="translate(330,409)"/>
<path d="M0 0 C2.875 -0.125 2.875 -0.125 6 0 C6.66 0.66 7.32 1.32 8 2 C7.625 4.625 7.625 4.625 7 7 C5.83040013 6.02433888 4.66438823 5.044375 3.5 4.0625 C2.8503125 3.51722656 2.200625 2.97195313 1.53125 2.41015625 C1.0259375 1.94480469 0.520625 1.47945313 0 1 C0 0.67 0 0.34 0 0 Z " fill="#25C178" transform="translate(29,281)"/>
<path d="M0 0 C1.32 0.33 2.64 0.66 4 1 C1.03 3.97 -1.94 6.94 -5 10 C-5.33 8.68 -5.66 7.36 -6 6 C-3.8614515 3.8614515 -2.86724686 3.57344937 0 3 C0 2.01 0 1.02 0 0 Z " fill="#59CE98" transform="translate(45,231)"/>
<path d="M0 0 C1.32 0.33 2.64 0.66 4 1 C1.03 3.97 -1.94 6.94 -5 10 C-5.33 8.68 -5.66 7.36 -6 6 C-3.8614515 3.8614515 -2.86724686 3.57344937 0 3 C0 2.01 0 1.02 0 0 Z " fill="#59CE98" transform="translate(61,215)"/>
<path d="M0 0 C2.65664779 0.15180845 4.45217862 0.52011425 6.48046875 2.296875 C7.875 3.875 7.875 3.875 10 7 C9.67 7.99 9.34 8.98 9 10 C7.49702124 8.52386015 5.99768715 7.04400843 4.5 5.5625 C3.6646875 4.73878906 2.829375 3.91507813 1.96875 3.06640625 C0 1 0 1 0 0 Z " fill="#56CD96" transform="translate(289,204)"/>
<path d="M0 0 C1.32 0.33 2.64 0.66 4 1 C1.03 3.97 -1.94 6.94 -5 10 C-5.33 8.68 -5.66 7.36 -6 6 C-3.8614515 3.8614515 -2.86724686 3.57344937 0 3 C0 2.01 0 1.02 0 0 Z " fill="#5BCE99" transform="translate(77,199)"/>
<path d="M0 0 C1.32 0.33 2.64 0.66 4 1 C1.03 3.97 -1.94 6.94 -5 10 C-5.33 8.68 -5.66 7.36 -6 6 C-3.8614515 3.8614515 -2.86724686 3.57344937 0 3 C0 2.01 0 1.02 0 0 Z " fill="#5BCE99" transform="translate(109,167)"/>
<path d="M0 0 C2.9565198 0.63353996 5.54707475 1.20118815 8 3 C9.25 6.625 9.25 6.625 10 10 C2.51708428 3.84965831 2.51708428 3.84965831 0 0 Z " fill="#68D2A1" transform="translate(216,390)"/>
<path d="M0 0 C-0.95421808 1.14926266 -1.91352045 2.29430541 -2.875 3.4375 C-3.40867187 4.07558594 -3.94234375 4.71367187 -4.4921875 5.37109375 C-6 7 -6 7 -8 8 C-8.36075949 3.55063291 -8.36075949 3.55063291 -6.8125 1.1875 C-4.44017475 -0.36678206 -2.77958655 -0.22537188 0 0 Z " fill="#3AC784" transform="translate(491,257)"/>
<path d="M0 0 C7.48291572 6.15034169 7.48291572 6.15034169 10 10 C7.03 9.505 7.03 9.505 4 9 C4 8.01 4 7.02 4 6 C3.01 5.67 2.02 5.34 1 5 C0.67 3.35 0.34 1.7 0 0 Z " fill="#55CF96" transform="translate(409,235)"/>
<path d="M0 0 C-0.875 4.875 -0.875 4.875 -2 6 C-3.66617115 6.04063832 -5.33388095 6.042721 -7 6 C-6.1875 3.5625 -6.1875 3.5625 -5 1 C-2 0 -2 0 0 0 Z " fill="#01BE62" transform="translate(294,352)"/>
<path d="M0 0 C1.14926266 0.95421808 2.29430541 1.91352045 3.4375 2.875 C4.07558594 3.40867188 4.71367187 3.94234375 5.37109375 4.4921875 C7 6 7 6 8 8 C5.625 8.625 5.625 8.625 3 9 C0.23776722 6.23776722 0.42143709 3.79293383 0 0 Z " fill="#44CA8B" transform="translate(380,206)"/>
<path d="M0 0 C1.14926266 0.95421808 2.29430541 1.91352045 3.4375 2.875 C4.07558594 3.40867188 4.71367187 3.94234375 5.37109375 4.4921875 C7 6 7 6 8 8 C5.625 8.625 5.625 8.625 3 9 C0.23776722 6.23776722 0.42143709 3.79293383 0 0 Z " fill="#42CB8A" transform="translate(372,198)"/>
<path d="M0 0 C0 4.13122742 -1.4277594 5.81854452 -4 9 C-7.25 10.375 -7.25 10.375 -10 11 C-6.79239749 7.19364503 -3.59253891 3.45436433 0 0 Z " fill="#68D2A3" transform="translate(192,137)"/>
<path d="M0 0 C1.14926266 0.95421808 2.29430541 1.91352045 3.4375 2.875 C4.07558594 3.40867187 4.71367187 3.94234375 5.37109375 4.4921875 C7 6 7 6 8 8 C6.68 8.33 5.36 8.66 4 9 C3.67 8.01 3.34 7.02 3 6 C2.01 6 1.02 6 0 6 C0 4.02 0 2.04 0 0 Z " fill="#36C581" transform="translate(178,83)"/>
<path d="M0 0 C0.33 0.66 0.66 1.32 1 2 C1.66 2.33 2.32 2.66 3 3 C3 4.98 3 6.96 3 9 C0.69 7.02 -1.62 5.04 -4 3 C-2.68 2.01 -1.36 1.02 0 0 Z " fill="#26BF77" transform="translate(98,344)"/>
<path d="M0 0 C0.33 0.66 0.66 1.32 1 2 C1.66 2.33 2.32 2.66 3 3 C3 4.98 3 6.96 3 9 C0.69 7.02 -1.62 5.04 -4 3 C-2.68 2.01 -1.36 1.02 0 0 Z " fill="#26BF77" transform="translate(82,328)"/>
<path d="M0 0 C0 4.1041911 -1.45843064 5.84021107 -4 9 C-6.75 9.875 -6.75 9.875 -9 10 C-8.06409496 8.8944811 -7.12620142 7.79064547 -6.1875 6.6875 C-5.66542969 6.07261719 -5.14335937 5.45773437 -4.60546875 4.82421875 C-3.12827531 3.14575321 -1.59960869 1.56117966 0 0 Z " fill="#54CE94" transform="translate(403,316)"/>
<path d="M0 0 C0.66 0.99 1.32 1.98 2 3 C-0.25 5.5625 -0.25 5.5625 -3 8 C-4.32 7.67 -5.64 7.34 -7 7 C-4.69 4.69 -2.38 2.38 0 0 Z " fill="#43CA8B" transform="translate(411,308)"/>
<path d="M0 0 C0.66 0 1.32 0 2 0 C1.6875 1.9375 1.6875 1.9375 1 4 C0.01 4.33 -0.98 4.66 -2 5 C-2 5.66 -2 6.32 -2 7 C-3.65 7.33 -5.3 7.66 -7 8 C-6.02133662 6.85373678 -5.04205413 5.70800212 -4.0625 4.5625 C-3.51722656 3.92441406 -2.97195313 3.28632813 -2.41015625 2.62890625 C-1.63204305 1.73008851 -0.84063472 0.84063472 0 0 Z " fill="#46C98B" transform="translate(419,300)"/>
<path d="M0 0 C2.97 0.495 2.97 0.495 6 1 C6 1.99 6 2.98 6 4 C6.99 4.33 7.98 4.66 9 5 C9.33 6.65 9.66 8.3 10 10 C2.51708428 3.84965831 2.51708428 3.84965831 0 0 Z " fill="#32BC7B" transform="translate(388,163)"/>
<path d="M0 0 C0 3.61207397 -1.1151038 4.98416608 -3 8 C-3.33 8.99 -3.66 9.98 -4 11 C-4.66 10.67 -5.32 10.34 -6 10 C-5.67 9.34 -5.34 8.68 -5 8 C-5.66 8 -6.32 8 -7 8 C-7.33 6.68 -7.66 5.36 -8 4 C-7.01 4.33 -6.02 4.66 -5 5 C-3.35 3.35 -1.7 1.7 0 0 Z " fill="#3AC383" transform="translate(175,387)"/>
<path d="M0 0 C1 2 1 2 0.375 3.9375 C-2.08838025 7.63257038 -6.12491678 9.07070325 -10 11 C-6.79239749 7.19364503 -3.59253891 3.45436433 0 0 Z " fill="#71D5A8" transform="translate(293,347)"/>
<path d="M0 0 C0.33 0.66 0.66 1.32 1 2 C1.66 2.33 2.32 2.66 3 3 C-0.28804981 5.91227269 -2.59885603 7.49701212 -7 8 C-6.02133662 6.85373678 -5.04205413 5.70800212 -4.0625 4.5625 C-3.51722656 3.92441406 -2.97195313 3.28632813 -2.41015625 2.62890625 C-1.63204305 1.73008851 -0.84063472 0.84063472 0 0 Z " fill="#45CA8B" transform="translate(435,284)"/>
<path d="M0 0 C0.99 0.66 1.98 1.32 3 2 C3.1875 5.125 3.1875 5.125 3 8 C0.69 6.02 -1.62 4.04 -4 2 C-2.68 1.34 -1.36 0.68 0 0 Z " fill="#2AC17B" transform="translate(18,265)"/>
<path d="M0 0 C1.32 0 2.64 0 4 0 C2.73762269 2.52475462 1.2095347 3.46605403 -1.0625 5.125 C-1.79597656 5.66382813 -2.52945313 6.20265625 -3.28515625 6.7578125 C-3.85105469 7.16773438 -4.41695312 7.57765625 -5 8 C-5 6.35 -5 4.7 -5 3 C-3.35 2.67 -1.7 2.34 0 2 C0 1.34 0 0.68 0 0 Z " fill="#36C281" transform="translate(188,167)"/>
<path d="M0 0 C1.14926266 0.95421808 2.29430541 1.91352045 3.4375 2.875 C4.07558594 3.40867187 4.71367187 3.94234375 5.37109375 4.4921875 C7 6 7 6 8 8 C7.34 8 6.68 8 6 8 C5.67 8.66 5.34 9.32 5 10 C2.01409913 7.01409913 0.95692927 4.04789549 0 0 Z " fill="#32C37F" transform="translate(199,104)"/>
<path d="M0 0 C6.875 5.75 6.875 5.75 8 8 C6.35 8.33 4.7 8.66 3 9 C2.01 6.03 1.02 3.06 0 0 Z " fill="#47CC8D" transform="translate(260,86)"/>
<path d="M0 0 C2.97 0.495 2.97 0.495 6 1 C6 1.66 6 2.32 6 3 C6.66 3.33 7.32 3.66 8 4 C7.67 5.32 7.34 6.64 7 8 C5.83035398 6.8572081 4.66435444 5.71068285 3.5 4.5625 C2.8503125 3.92441406 2.200625 3.28632813 1.53125 2.62890625 C0 1 0 1 0 0 Z " fill="#57CE98" transform="translate(208,314)"/>
<path d="M0 0 C2.38564077 0.57584432 4.66682784 1.22227595 7 2 C7.33 3.98 7.66 5.96 8 8 C6.85073734 7.04578192 5.70569459 6.08647955 4.5625 5.125 C3.92441406 4.59132813 3.28632813 4.05765625 2.62890625 3.5078125 C1 2 1 2 0 0 Z " fill="#5ACE9A" transform="translate(200,306)"/>
<path d="M0 0 C0 3.70411834 -0.75301769 5.078923 -3 8 C-6.1875 9.3125 -6.1875 9.3125 -9 10 C-8.06409496 8.8944811 -7.12620142 7.79064547 -6.1875 6.6875 C-5.66542969 6.07261719 -5.14335937 5.45773437 -4.60546875 4.82421875 C-3.12827531 3.14575321 -1.59960869 1.56117966 0 0 Z " fill="#60D19D" transform="translate(361,279)"/>
<path d="M0 0 C0 4.13122742 -1.4277594 5.81854452 -4 9 C-7.25 10.375 -7.25 10.375 -10 11 C-6.79239749 7.19364503 -3.59253891 3.45436433 0 0 Z " fill="#80DAB1" transform="translate(137,192)"/>
<path d="M0 0 C1.17539996 0.92652701 2.34010577 1.86663387 3.5 2.8125 C4.1496875 3.33457031 4.799375 3.85664063 5.46875 4.39453125 C7 6 7 6 7 9 C6.01 9 5.02 9 4 9 C3.67 7.35 3.34 5.7 3 4 C2.01 3.67 1.02 3.34 0 3 C0 2.01 0 1.02 0 0 Z " fill="#48CA8C" transform="translate(346,172)"/>
<path d="M0 0 C0.66 0 1.32 0 2 0 C2.33 1.32 2.66 2.64 3 4 C3.66 4 4.32 4 5 4 C5 4.66 5 5.32 5 6 C3.35 6.33 1.7 6.66 0 7 C-0.66 5.68 -1.32 4.36 -2 3 C-1.34 2.01 -0.68 1.02 0 0 Z " fill="#01BD62" transform="translate(330,81)"/>
<path d="M0 0 C0 3.39593478 -0.52165948 4.06619881 -2.5 6.6875 C-2.9640625 7.31011719 -3.428125 7.93273437 -3.90625 8.57421875 C-4.2671875 9.04472656 -4.628125 9.51523437 -5 10 C-6.32 9.67 -7.64 9.34 -9 9 C-6.03 6.03 -3.06 3.06 0 0 Z " fill="#70D3A6" transform="translate(257,383)"/>
<path d="M0 0 C-0.226875 0.598125 -0.45375 1.19625 -0.6875 1.8125 C-0.790625 2.534375 -0.89375 3.25625 -1 4 C0.35444301 5.77190909 0.35444301 5.77190909 2 7 C-1 7 -1 7 -3.1875 5.125 C-5 3 -5 3 -5 1 C-3 0 -3 0 0 0 Z " fill="#25BD75" transform="translate(147,392)"/>
<path d="M0 0 C0.66 0.99 1.32 1.98 2 3 C-0.25 5.5625 -0.25 5.5625 -3 8 C-4.32 7.67 -5.64 7.34 -7 7 C-4.69 4.69 -2.38 2.38 0 0 Z " fill="#4CCD91" transform="translate(347,372)"/>
<path d="M0 0 C1.32 0.33 2.64 0.66 4 1 C4 1.66 4 2.32 4 3 C4.66 3 5.32 3 6 3 C6.33 2.34 6.66 1.68 7 1 C7.33 3.31 7.66 5.62 8 8 C6.85073734 7.04578192 5.70569459 6.08647955 4.5625 5.125 C3.92441406 4.59132813 3.28632813 4.05765625 2.62890625 3.5078125 C1 2 1 2 0 0 Z " fill="#5ACF9A" transform="translate(248,354)"/>
<path d="M0 0 C2.38564077 0.57584432 4.66682784 1.22227595 7 2 C7.33 3.98 7.66 5.96 8 8 C6.85073734 7.04578192 5.70569459 6.08647955 4.5625 5.125 C3.92441406 4.59132813 3.28632813 4.05765625 2.62890625 3.5078125 C1 2 1 2 0 0 Z " fill="#5CCE9A" transform="translate(232,338)"/>
<path d="M0 0 C1.14926266 0.95421808 2.29430541 1.91352045 3.4375 2.875 C4.07558594 3.40867187 4.71367187 3.94234375 5.37109375 4.4921875 C7 6 7 6 8 8 C3.25 7.125 3.25 7.125 1 6 C0.375 2.9375 0.375 2.9375 0 0 Z " fill="#54CE96" transform="translate(292,305)"/>
<path d="M0 0 C1.14926266 0.95421808 2.29430541 1.91352045 3.4375 2.875 C4.07558594 3.40867188 4.71367187 3.94234375 5.37109375 4.4921875 C7 6 7 6 8 8 C5.2980567 7.63487253 3.41609148 7.30130763 1.1875 5.6875 C0 4 0 4 0 0 Z " fill="#66D2A2" transform="translate(466,213)"/>
<path d="M0 0 C2.97 0.495 2.97 0.495 6 1 C6 1.99 6 2.98 6 4 C6.66 4 7.32 4 8 4 C7.67 5.32 7.34 6.64 7 8 C5.83035398 6.8572081 4.66435444 5.71068285 3.5 4.5625 C2.8503125 3.92441406 2.200625 3.28632813 1.53125 2.62890625 C0 1 0 1 0 0 Z " fill="#3DC585" transform="translate(363,217)"/>
<path d="M0 0 C2.97 0.495 2.97 0.495 6 1 C6 1.66 6 2.32 6 3 C6.66 3.33 7.32 3.66 8 4 C7.67 5.32 7.34 6.64 7 8 C5.83035398 6.8572081 4.66435444 5.71068285 3.5 4.5625 C2.8503125 3.92441406 2.200625 3.28632813 1.53125 2.62890625 C0 1 0 1 0 0 Z " fill="#3EC586" transform="translate(355,209)"/>
<path d="M0 0 C1.14926266 0.95421808 2.29430541 1.91352045 3.4375 2.875 C4.07558594 3.40867188 4.71367187 3.94234375 5.37109375 4.4921875 C7 6 7 6 8 8 C2.25 6.25 2.25 6.25 0 4 C0 2.68 0 1.36 0 0 Z " fill="#66D09F" transform="translate(442,189)"/>
<path d="M0 0 C1.14926266 0.95421808 2.29430541 1.91352045 3.4375 2.875 C4.07558594 3.40867188 4.71367187 3.94234375 5.37109375 4.4921875 C7 6 7 6 8 8 C3.25 7.125 3.25 7.125 1 6 C0.375 2.9375 0.375 2.9375 0 0 Z " fill="#39C584" transform="translate(233,182)"/>
<path d="M0 0 C0 0.66 0 1.32 0 2 C-0.66 2 -1.32 2 -2 2 C-2 2.66 -2 3.32 -2 4 C-4.31 4.66 -6.62 5.32 -9 6 C-4.5 0 -4.5 0 0 0 Z " fill="#4ECA91" transform="translate(149,184)"/>
<path d="M0 0 C1.14926266 0.95421808 2.29430541 1.91352045 3.4375 2.875 C4.07558594 3.40867188 4.71367187 3.94234375 5.37109375 4.4921875 C7 6 7 6 8 8 C2.25 6.25 2.25 6.25 0 4 C0 2.68 0 1.36 0 0 Z " fill="#66D1A0" transform="translate(426,173)"/>
<path d="M0 0 C1.14926266 0.95421808 2.29430541 1.91352045 3.4375 2.875 C4.07558594 3.40867188 4.71367187 3.94234375 5.37109375 4.4921875 C7 6 7 6 8 8 C4.89347355 7.6641593 3.39585697 7.40950721 1.1875 5.125 C0 3 0 3 0 0 Z " fill="#39C584" transform="translate(217,166)"/>
<path d="M0 0 C1.14926266 0.95421808 2.29430541 1.91352045 3.4375 2.875 C4.07558594 3.40867188 4.71367187 3.94234375 5.37109375 4.4921875 C7 6 7 6 8 8 C2.25 6.25 2.25 6.25 0 4 C0 2.68 0 1.36 0 0 Z " fill="#65D09F" transform="translate(410,157)"/>
<path d="M0 0 C1.14926266 0.95421808 2.29430541 1.91352045 3.4375 2.875 C4.07558594 3.40867188 4.71367187 3.94234375 5.37109375 4.4921875 C7 6 7 6 8 8 C2.25 6.25 2.25 6.25 0 4 C0 2.68 0 1.36 0 0 Z " fill="#65D09F" transform="translate(394,141)"/>
<path d="M0 0 C3.78383679 0.92493788 5.56693694 1.39371171 7.875 4.625 C8.431875 5.800625 8.431875 5.800625 9 7 C6 7 6 7 4.39453125 5.46875 C3.87246094 4.8190625 3.35039062 4.169375 2.8125 3.5 C2.28269531 2.8503125 1.75289063 2.200625 1.20703125 1.53125 C0.80871094 1.0259375 0.41039062 0.520625 0 0 Z " fill="#43C889" transform="translate(278,132)"/>
<path d="M0 0 C0.33 0.99 0.66 1.98 1 3 C2.32 3 3.64 3 5 3 C5.33 4.98 5.66 6.96 6 9 C4.85073734 8.04578192 3.70569459 7.08647955 2.5625 6.125 C1.92441406 5.59132813 1.28632813 5.05765625 0.62890625 4.5078125 C-1 3 -1 3 -2 1 C-1.34 0.67 -0.68 0.34 0 0 Z " fill="#2FBE7C" transform="translate(344,116)"/>
<path d="M0 0 C0.33 1.32 0.66 2.64 1 4 C0.01 4.33 -0.98 4.66 -2 5 C-2.33 5.99 -2.66 6.98 -3 8 C-4.32 7.67 -5.64 7.34 -7 7 C-4.69 4.69 -2.38 2.38 0 0 Z " fill="#5BCE9A" transform="translate(224,105)"/>
<path d="M0 0 C3.36720387 1.39332574 4.9859524 2.9789286 7 6 C5.35 5.67 3.7 5.34 2 5 C2 4.34 2 3.68 2 3 C0.35 3.33 -1.3 3.66 -3 4 C-2.01 2.68 -1.02 1.36 0 0 Z " fill="#6BD2A3" transform="translate(251,78)"/>
<path d="M0 0 C1.14926266 0.95421808 2.29430541 1.91352045 3.4375 2.875 C4.07558594 3.40867187 4.71367187 3.94234375 5.37109375 4.4921875 C7 6 7 6 8 8 C6.35 8 4.7 8 3 8 C1.58101234 5.35122304 0.68088981 2.91985181 0 0 Z " fill="#63D1A0" transform="translate(151,375)"/>
<path d="M0 0 C1.14926266 0.95421808 2.29430541 1.91352045 3.4375 2.875 C4.07558594 3.40867187 4.71367188 3.94234375 5.37109375 4.4921875 C7 6 7 6 8 8 C5.2980567 7.63487253 3.41609148 7.30130763 1.1875 5.6875 C0 4 0 4 0 0 Z " fill="#61D09E" transform="translate(95,319)"/>
<path d="M0 0 C1.5 1.1875 1.5 1.1875 3 3 C3.1875 5.6875 3.1875 5.6875 3 8 C1.02 6.35 -0.96 4.7 -3 3 C-2.01 2.67 -1.02 2.34 0 2 C0 1.34 0 0.68 0 0 Z " fill="#48CB8F" transform="translate(221,322)"/>
<path d="M0 0 C0.99 0.33 1.98 0.66 3 1 C3 1.66 3 2.32 3 3 C2.34 3 1.68 3 1 3 C0.34 4.32 -0.32 5.64 -1 7 C-1.99 6.01 -2.98 5.02 -4 4 C-2.68 2.68 -1.36 1.36 0 0 Z " fill="#00BE5F" transform="translate(364,281)"/>
<path d="M0 0 C1.14926266 0.95421808 2.29430541 1.91352045 3.4375 2.875 C4.07558594 3.40867188 4.71367187 3.94234375 5.37109375 4.4921875 C7 6 7 6 8 8 C6.35 8 4.7 8 3 8 C3 7.01 3 6.02 3 5 C2.34 5 1.68 5 1 5 C0.67 3.35 0.34 1.7 0 0 Z " fill="#57CD96" transform="translate(234,247)"/>
<path d="M0 0 C1.14926266 0.95421808 2.29430541 1.91352045 3.4375 2.875 C4.07558594 3.40867188 4.71367187 3.94234375 5.37109375 4.4921875 C7 6 7 6 8 8 C6.35 8 4.7 8 3 8 C3 7.01 3 6.02 3 5 C2.34 5 1.68 5 1 5 C0.67 3.35 0.34 1.7 0 0 Z " fill="#57CD96" transform="translate(218,231)"/>
<path d="M0 0 C2.04119788 1.61594832 4.04072937 3.2856382 6 5 C6 5.66 6 6.32 6 7 C3.03 6.505 3.03 6.505 0 6 C0 4.02 0 2.04 0 0 Z " fill="#30C27E" transform="translate(259,208)"/>
<path d="M0 0 C1.14926266 0.95421808 2.29430541 1.91352045 3.4375 2.875 C4.07558594 3.40867188 4.71367187 3.94234375 5.37109375 4.4921875 C7 6 7 6 8 8 C5.69 7.34 3.38 6.68 1 6 C0.67 4.02 0.34 2.04 0 0 Z " fill="#3CC485" transform="translate(241,190)"/>
<path d="M0 0 C2.71675995 0.36712972 4.61063713 0.72744599 6.875 2.3125 C7.431875 3.1478125 7.431875 3.1478125 8 4 C7.5703125 6.10546875 7.5703125 6.10546875 7 8 C5.83035398 6.8572081 4.66435444 5.71068285 3.5 4.5625 C2.8503125 3.92441406 2.200625 3.28632813 1.53125 2.62890625 C0 1 0 1 0 0 Z " fill="#5ACE99" transform="translate(273,188)"/>
<path d="M0 0 C0.33 0.66 0.66 1.32 1 2 C-0.125 4.5625 -0.125 4.5625 -2 7 C-4.6875 7.8125 -4.6875 7.8125 -7 8 C-6.02133662 6.85373678 -5.04205413 5.70800212 -4.0625 4.5625 C-3.51722656 3.92441406 -2.97195312 3.28632813 -2.41015625 2.62890625 C-1.63204305 1.73008851 -0.84063472 0.84063472 0 0 Z " fill="#35C180" transform="translate(88,163)"/>
<path d="M0 0 C1.17539996 0.92652701 2.34010577 1.86663387 3.5 2.8125 C4.1496875 3.33457031 4.799375 3.85664063 5.46875 4.39453125 C7 6 7 6 7 9 C1.21538462 5.67692308 1.21538462 5.67692308 0.125 2.25 C0.08375 1.5075 0.0425 0.765 0 0 Z " fill="#4ECB8F" transform="translate(332,158)"/>
<path d="M0 0 C2.31 0.66 4.62 1.32 7 2 C7.33 3.98 7.66 5.96 8 8 C6.85073734 7.04578192 5.70569459 6.08647955 4.5625 5.125 C3.92441406 4.59132812 3.28632813 4.05765625 2.62890625 3.5078125 C1 2 1 2 0 0 Z " fill="#43C688" transform="translate(298,152)"/>
<path d="M0 0 C2.31 0 4.62 0 7 0 C6.67 1.65 6.34 3.3 6 5 C6.66 5.33 7.32 5.66 8 6 C5 6 5 6 3.61328125 4.6875 C2.40885417 3.125 1.20442708 1.5625 0 0 Z " fill="#28BD76" transform="translate(181,354)"/>
<path d="M0 0 C0.33 0.66 0.66 1.32 1 2 C-0.125 4.5625 -0.125 4.5625 -2 7 C-4.6875 7.8125 -4.6875 7.8125 -7 8 C-6.02133662 6.85373678 -5.04205413 5.70800212 -4.0625 4.5625 C-3.51722656 3.92441406 -2.97195313 3.28632813 -2.41015625 2.62890625 C-1.63204305 1.73008851 -0.84063472 0.84063472 0 0 Z " fill="#52CE94" transform="translate(379,340)"/>
<path d="M0 0 C2.31 0 4.62 0 7 0 C6.67 1.65 6.34 3.3 6 5 C6.66 5.33 7.32 5.66 8 6 C5 6 5 6 3.61328125 4.6875 C2.40885417 3.125 1.20442708 1.5625 0 0 Z " fill="#28BD76" transform="translate(149,322)"/>
<path d="M0 0 C2.31 0 4.62 0 7 0 C7 1.65 7 3.3 7 5 C6.01 5 5.02 5 4 5 C1.8125 2.5 1.8125 2.5 0 0 Z " fill="#28BF77" transform="translate(70,322)"/>
<path d="M0 0 C1.98 0 3.96 0 6 0 C6.93423645 3.01031744 7.04449911 3.86650268 6 7 C4.02 4.69 2.04 2.38 0 0 Z " fill="#30C17D" transform="translate(61,313)"/>
<path d="M0 0 C3.35595828 0.59927826 5.37801226 1.84622436 8 4 C7.67 5.32 7.34 6.64 7 8 C5.83035398 6.8572081 4.66435444 5.71068285 3.5 4.5625 C2.8503125 3.92441406 2.200625 3.28632813 1.53125 2.62890625 C0 1 0 1 0 0 Z " fill="#35C07F" transform="translate(53,305)"/>
<path d="M0 0 C2.31 0 4.62 0 7 0 C6.67 1.65 6.34 3.3 6 5 C6.66 5.33 7.32 5.66 8 6 C5 6 5 6 3.61328125 4.6875 C2.40885417 3.125 1.20442708 1.5625 0 0 Z " fill="#28BD76" transform="translate(117,290)"/>
<path d="M0 0 C0.66 0.33 1.32 0.66 2 1 C-1.465 3.97 -1.465 3.97 -5 7 C-5.33 6.01 -5.66 5.02 -6 4 C-3.94766315 1.7522025 -2.99332739 0.9977758 0 0 Z " fill="#2DC27D" transform="translate(442,279)"/>
<path d="M0 0 C2.71675995 0.36712972 4.61063713 0.72744599 6.875 2.3125 C7.431875 3.1478125 7.431875 3.1478125 8 4 C7.5703125 6.10546875 7.5703125 6.10546875 7 8 C5.83035398 6.8572081 4.66435444 5.71068285 3.5 4.5625 C2.8503125 3.92441406 2.200625 3.28632813 1.53125 2.62890625 C0 1 0 1 0 0 Z " fill="#5ACE98" transform="translate(337,252)"/>
<path d="M0 0 C1.14926266 0.95421808 2.29430541 1.91352045 3.4375 2.875 C4.07558594 3.40867188 4.71367187 3.94234375 5.37109375 4.4921875 C7 6 7 6 8 8 C2.25 6.25 2.25 6.25 0 4 C0 2.68 0 1.36 0 0 Z " fill="#6FD4A6" transform="translate(458,205)"/>
<path d="M0 0 C0.33 0.66 0.66 1.32 1 2 C0.0625 4.125 0.0625 4.125 -1 6 C-1.66 6 -2.32 6 -3 6 C-3 6.66 -3 7.32 -3 8 C-4.32 7.67 -5.64 7.34 -7 7 C-4.69 4.69 -2.38 2.38 0 0 Z " fill="#37C281" transform="translate(64,187)"/>
<path d="M0 0 C1.65 0 3.3 0 5 0 C3.02 2.31 1.04 4.62 -1 7 C-1.33 5.68 -1.66 4.36 -2 3 C-1.34 3 -0.68 3 0 3 C0 2.01 0 1.02 0 0 Z " fill="#56CD96" transform="translate(89,186)"/>
<path d="M0 0 C0.33 0.66 0.66 1.32 1 2 C0.0625 4.125 0.0625 4.125 -1 6 C-1.66 6 -2.32 6 -3 6 C-3 6.66 -3 7.32 -3 8 C-4.32 7.67 -5.64 7.34 -7 7 C-4.69 4.69 -2.38 2.38 0 0 Z " fill="#38C181" transform="translate(80,171)"/>
<path d="M0 0 C2.31 1.98 4.62 3.96 7 6 C5.02 6.99 5.02 6.99 3 8 C0 2.25 0 2.25 0 0 Z " fill="#36C381" transform="translate(210,159)"/>
<path d="M0 0 C0.33 0.66 0.66 1.32 1 2 C0.0625 4.125 0.0625 4.125 -1 6 C-1.66 6 -2.32 6 -3 6 C-3 6.66 -3 7.32 -3 8 C-4.32 7.67 -5.64 7.34 -7 7 C-4.69 4.69 -2.38 2.38 0 0 Z " fill="#38C181" transform="translate(96,155)"/>
<path d="M0 0 C2.0625 1.75 2.0625 1.75 4 4 C3.75 6.25 3.75 6.25 3 8 C3.66 8.33 4.32 8.66 5 9 C4.01 9 3.02 9 2 9 C0.50178941 5.62902617 0 3.79557881 0 0 Z " fill="#1CC374" transform="translate(305,153)"/>
<path d="M0 0 C0 0.99 0 1.98 0 3 C-2.5 5.1875 -2.5 5.1875 -5 7 C-5.66 6.34 -6.32 5.68 -7 5 C-4.63707344 2.47411298 -3.33537489 1.11179163 0 0 Z " fill="#26BD77" transform="translate(104,149)"/>
<path d="M0 0 C3.25543229 0.34879632 4.01873107 1.02133261 6.25 3.5625 C6.8275 4.366875 7.405 5.17125 8 6 C2.25 4.125 2.25 4.125 0 3 C0 2.01 0 1.02 0 0 Z " fill="#55CD97" transform="translate(386,135)"/>
<path d="M0 0 C2.31 1.98 4.62 3.96 7 6 C3 7 3 7 1 6 C0.375 2.9375 0.375 2.9375 0 0 Z " fill="#34BF7E" transform="translate(230,376)"/>
<path d="M0 0 C0.33 0.66 0.66 1.32 1 2 C0.67 2.99 0.34 3.98 0 5 C-0.66 5 -1.32 5 -2 5 C-2 5.66 -2 6.32 -2 7 C-3.65 7.33 -5.3 7.66 -7 8 C-6.02133662 6.85373678 -5.04205413 5.70800212 -4.0625 4.5625 C-3.51722656 3.92441406 -2.97195313 3.28632813 -2.41015625 2.62890625 C-1.63204305 1.73008851 -0.84063472 0.84063472 0 0 Z " fill="#58CE96" transform="translate(355,364)"/>
<path d="M0 0 C1.17539996 0.92652701 2.34010577 1.86663387 3.5 2.8125 C4.1496875 3.33457031 4.799375 3.85664063 5.46875 4.39453125 C7 6 7 6 7 9 C6.5875 8.54625 6.175 8.0925 5.75 7.625 C3.93591905 5.94049626 2.24714373 5.00734029 0 4 C0 2.68 0 1.36 0 0 Z " fill="#3DC283" transform="translate(257,335)"/>
<path d="M0 0 C1.17539996 0.92652701 2.34010577 1.86663387 3.5 2.8125 C4.1496875 3.33457031 4.799375 3.85664063 5.46875 4.39453125 C7 6 7 6 7 9 C6.5875 8.54625 6.175 8.0925 5.75 7.625 C3.93591905 5.94049626 2.24714373 5.00734029 0 4 C0 2.68 0 1.36 0 0 Z " fill="#3CC283" transform="translate(241,319)"/>
<path d="M0 0 C2.02054804 1.64169528 4.02043058 3.30911778 6 5 C6 5.33 6 5.66 6 6 C4.35 6 2.7 6 1 6 C1 5.34 1 4.68 1 4 C0.34 4 -0.32 4 -1 4 C-0.67 2.68 -0.34 1.36 0 0 Z " fill="#2CBF7A" transform="translate(210,288)"/>
<path d="M0 0 C2.02054804 1.64169528 4.02043058 3.30911778 6 5 C6 5.33 6 5.66 6 6 C4.35 6 2.7 6 1 6 C1 5.34 1 4.68 1 4 C0.34 4 -0.32 4 -1 4 C-0.67 2.68 -0.34 1.36 0 0 Z " fill="#2CBF7A" transform="translate(194,272)"/>
<path d="M0 0 C2.02054804 1.64169528 4.02043058 3.30911778 6 5 C6 5.33 6 5.66 6 6 C4.35 6 2.7 6 1 6 C1 5.34 1 4.68 1 4 C0.34 4 -0.32 4 -1 4 C-0.67 2.68 -0.34 1.36 0 0 Z " fill="#2CBF7A" transform="translate(178,256)"/>
<path d="M0 0 C2.02054804 1.64169528 4.02043058 3.30911778 6 5 C6 5.33 6 5.66 6 6 C4.35 6 2.7 6 1 6 C1 5.34 1 4.68 1 4 C0.34 4 -0.32 4 -1 4 C-0.67 2.68 -0.34 1.36 0 0 Z " fill="#2CBF7A" transform="translate(162,240)"/>
<path d="M0 0 C1.14926266 0.95421808 2.29430541 1.91352045 3.4375 2.875 C4.07558594 3.40867188 4.71367187 3.94234375 5.37109375 4.4921875 C7 6 7 6 8 8 C6.35 7.67 4.7 7.34 3 7 C3 6.01 3 5.02 3 4 C2.01 3.67 1.02 3.34 0 3 C0 2.01 0 1.02 0 0 Z " fill="#5CD29B" transform="translate(401,227)"/>
<path d="M0 0 C0 3.16880694 -0.2058242 4.43689172 -2 7 C-4.625 7.75 -4.625 7.75 -7 8 C-6.02133662 6.85373678 -5.04205413 5.70800212 -4.0625 4.5625 C-3.51722656 3.92441406 -2.97195312 3.28632813 -2.41015625 2.62890625 C-1.63204305 1.73008851 -0.84063472 0.84063472 0 0 Z " fill="#3AC282" transform="translate(72,179)"/>
<path d="M0 0 C2.9375 0.8125 2.9375 0.8125 6 2 C6.33 2.99 6.66 3.98 7 5 C7.66 5.66 8.32 6.32 9 7 C6 7 6 7 4.39453125 5.46875 C3.87246094 4.8190625 3.35039062 4.169375 2.8125 3.5 C2.28269531 2.8503125 1.75289063 2.200625 1.20703125 1.53125 C0.80871094 1.0259375 0.41039062 0.520625 0 0 Z " fill="#4AC88C" transform="translate(286,140)"/>
<path d="M0 0 C0.33 0 0.66 0 1 0 C1.3648363 4.25642352 0.47460354 6.53555505 -2 10 C-2.33 10 -2.66 10 -3 10 C-2.25 2.25 -2.25 2.25 0 0 Z " fill="#30C37E" transform="translate(308,124)"/>
<path d="M0 0 C1.32 0 2.64 0 4 0 C4.66 2.31 5.32 4.62 6 7 C3.95880212 5.38405168 1.95927063 3.7143618 0 2 C0 1.34 0 0.68 0 0 Z " fill="#48CB8D" transform="translate(316,410)"/>
<path d="M0 0 C2.96175123 0.61277612 4.38058783 1.25372522 7 3 C7.6875 5.625 7.6875 5.625 8 8 C6.85073734 7.04578192 5.70569459 6.08647955 4.5625 5.125 C3.92441406 4.59132813 3.28632813 4.05765625 2.62890625 3.5078125 C1 2 1 2 0 0 Z " fill="#77D7AC" transform="translate(208,382)"/>
<path d="M0 0 C1.32 0 2.64 0 4 0 C4 0.99 4 1.98 4 3 C4.99 3 5.98 3 7 3 C7.33 4.65 7.66 6.3 8 8 C6.85073734 7.04578192 5.70569459 6.08647955 4.5625 5.125 C3.92441406 4.59132813 3.28632813 4.05765625 2.62890625 3.5078125 C1 2 1 2 0 0 Z " fill="#4CCC90" transform="translate(312,289)"/>
<path d="M0 0 C1.16959987 0.97566112 2.33561177 1.955625 3.5 2.9375 C4.1496875 3.48277344 4.799375 4.02804688 5.46875 4.58984375 C5.9740625 5.05519531 6.479375 5.52054688 7 6 C7 6.33 7 6.66 7 7 C5.35 7 3.7 7 2 7 C1.34 4.69 0.68 2.38 0 0 Z " fill="#32BF7D" transform="translate(153,231)"/>
<path d="M0 0 C1.98 1.65 3.96 3.3 6 5 C2.98968256 5.93423645 2.13349732 6.04449911 -1 5 C-0.67 3.35 -0.34 1.7 0 0 Z " fill="#46CD8D" transform="translate(390,216)"/>
<path d="M0 0 C1.66611905 -0.042721 3.33382885 -0.04063832 5 0 C6 1 6 1 6.0625 3.5625 C6.041875 4.366875 6.02125 5.17125 6 6 C3.97945196 4.35830472 1.97956942 2.69088222 0 1 C0 0.67 0 0.34 0 0 Z " fill="#36C482" transform="translate(347,201)"/>
<path d="M0 0 C1.65 1.65 3.3 3.3 5 5 C4.01 5.66 3.02 6.32 2 7 C1.34 6.67 0.68 6.34 0 6 C0 4.02 0 2.04 0 0 Z " fill="#34C580" transform="translate(309,135)"/>
<path d="M0 0 C1.65 1.65 3.3 3.3 5 5 C2.625 5.625 2.625 5.625 0 6 C-0.66 5.34 -1.32 4.68 -2 4 C-1.34 2.68 -0.68 1.36 0 0 Z " fill="#3ACA86" transform="translate(271,97)"/>
<path d="M0 0 C2.97 0.495 2.97 0.495 6 1 C1.25 5.875 1.25 5.875 -1 7 C-1 6.01 -1 5.02 -1 4 C-0.34 4 0.32 4 1 4 C0.67 2.68 0.34 1.36 0 0 Z " fill="#42C889" transform="translate(282,381)"/>
<path d="M0 0 C2.9719385 1.12451727 5.33440687 2.22293791 8 4 C7.67 4.99 7.34 5.98 7 7 C5.83040013 6.02433888 4.66438823 5.044375 3.5 4.0625 C2.8503125 3.51722656 2.200625 2.97195313 1.53125 2.41015625 C1.0259375 1.94480469 0.520625 1.47945313 0 1 C0 0.67 0 0.34 0 0 Z " fill="#34BE7E" transform="translate(101,353)"/>
<path d="M0 0 C0.99 0.33 1.98 0.66 3 1 C2.67 2.32 2.34 3.64 2 5 C2.66 5.33 3.32 5.66 4 6 C3.01 6 2.02 6 1 6 C-0.6875 4 -0.6875 4 -2 2 C-1.34 2 -0.68 2 0 2 C0 1.34 0 0.68 0 0 Z " fill="#34C881" transform="translate(300,273)"/>
<path d="M0 0 C0.33 1.32 0.66 2.64 1 4 C-3.75 5.125 -3.75 5.125 -6 4 C-3.94766315 1.7522025 -2.99332739 0.9977758 0 0 Z " fill="#31C680" transform="translate(462,259)"/>
<path d="M0 0 C2.31 1.98 4.62 3.96 7 6 C6.01 6.33 5.02 6.66 4 7 C1 5 1 5 0.3125 2.375 C0.209375 1.59125 0.10625 0.8075 0 0 Z " fill="#42C889" transform="translate(297,246)"/>
<path d="M0 0 C0.99 0.99 1.98 1.98 3 3 C0.03 5.475 0.03 5.475 -3 8 C-3.33 7.01 -3.66 6.02 -4 5 C-2.68 4.67 -1.36 4.34 0 4 C0 2.68 0 1.36 0 0 Z " fill="#4CC88E" transform="translate(419,245)"/>
<path d="M0 0 C1.98 1.65 3.96 3.3 6 5 C5.67 5.66 5.34 6.32 5 7 C4.01 7 3.02 7 2 7 C1.34 4.69 0.68 2.38 0 0 Z " fill="#48CC8D" transform="translate(356,182)"/>
<path d="M0 0 C2.31 0.66 4.62 1.32 7 2 C6.34 3.32 5.68 4.64 5 6 C3.35 4.02 1.7 2.04 0 0 Z " fill="#3BC685" transform="translate(314,168)"/>
<path d="M0 0 C1 2 1 2 0.4375 4 C-1.57302108 6.79724672 -3.74418077 7.15065585 -7 8 C-6.02133662 6.85373678 -5.04205413 5.70800212 -4.0625 4.5625 C-3.51722656 3.92441406 -2.97195312 3.28632812 -2.41015625 2.62890625 C-1.63204305 1.73008851 -0.84063472 0.84063472 0 0 Z " fill="#72D4A8" transform="translate(235,94)"/>
<path d="M0 0 C2.00720923 0.28674418 4.0085944 0.61866701 6 1 C4.68 2.32 3.36 3.64 2 5 C1.01 3.68 0.02 2.36 -1 1 C-0.67 0.67 -0.34 0.34 0 0 Z " fill="#55C993" transform="translate(245,417)"/>
<path d="M0 0 C0.99 0.33 1.98 0.66 3 1 C0.03 3.475 0.03 3.475 -3 6 C-3.33 5.01 -3.66 4.02 -4 3 C-2.1875 1.4375 -2.1875 1.4375 0 0 Z " fill="#34C481" transform="translate(265,401)"/>
<path d="M0 0 C1.16945792 0.80847729 2.33550461 1.62189112 3.5 2.4375 C4.47453125 3.11619141 4.47453125 3.11619141 5.46875 3.80859375 C5.9740625 4.20175781 6.479375 4.59492188 7 5 C7 5.33 7 5.66 7 6 C5.02 6 3.04 6 1 6 C0.67 4.02 0.34 2.04 0 0 Z " fill="#61D29F" transform="translate(308,321)"/>
<path d="M0 0 C1.98 1.65 3.96 3.3 6 5 C3 6 3 6 0 5 C0 3.35 0 1.7 0 0 Z " fill="#35BE7D" transform="translate(188,266)"/>
<path d="M0 0 C2.31 1.98 4.62 3.96 7 6 C6.34 6.66 5.68 7.32 5 8 C5 7.34 5 6.68 5 6 C3.68 5.67 2.36 5.34 1 5 C0.67 3.35 0.34 1.7 0 0 Z " fill="#44C98B" transform="translate(312,261)"/>
<path d="M0 0 C0.66 1.32 1.32 2.64 2 4 C1.01 4 0.02 4 -1 4 C-1.33 4.99 -1.66 5.98 -2 7 C-2.66 6.67 -3.32 6.34 -4 6 C-2.84826645 3.53199953 -1.95216435 1.95216435 0 0 Z " fill="#31BD7C" transform="translate(83,247)"/>
<path d="M0 0 C1.65 0 3.3 0 5 0 C5.33 1.98 5.66 3.96 6 6 C3.97945196 4.35830472 1.97956942 2.69088222 0 1 C0 0.67 0 0.34 0 0 Z " fill="#60D09E" transform="translate(134,240)"/>
<path d="M0 0 C0.33 1.32 0.66 2.64 1 4 C-0.32 4.33 -1.64 4.66 -3 5 C-3.99 3.68 -4.98 2.36 -6 1 C-3.92446352 0.4465236 -2.15634036 0 0 0 Z " fill="#38C785" transform="translate(309,217)"/>
<path d="M0 0 C2.02054804 1.64169528 4.02043058 3.30911778 6 5 C6 5.33 6 5.66 6 6 C4.02 6 2.04 6 0 6 C0 4.02 0 2.04 0 0 Z " fill="#4DCC90" transform="translate(178,191)"/>
<path d="M0 0 C1.66611905 -0.042721 3.33382885 -0.04063832 5 0 C6 1 6 1 6.0625 3.5625 C6.041875 4.366875 6.02125 5.17125 6 6 C3.97945196 4.35830472 1.97956942 2.69088222 0 1 C0 0.67 0 0.34 0 0 Z " fill="#3CC786" transform="translate(331,185)"/>
<path d="M0 0 C1.65 1.65 3.3 3.3 5 5 C4.01 5.33 3.02 5.66 2 6 C1.01 5.34 0.02 4.68 -1 4 C-0.67 2.68 -0.34 1.36 0 0 Z " fill="#3BC885" transform="translate(314,140)"/>
<path d="M0 0 C1.98 1.65 3.96 3.3 6 5 C5.01 5.495 5.01 5.495 4 6 C1.375 4.5625 1.375 4.5625 -1 3 C-0.67 2.01 -0.34 1.02 0 0 Z " fill="#61D09E" transform="translate(372,119)"/>
<path d="M0 0 C1.65 0 3.3 0 5 0 C3.35 1.98 1.7 3.96 0 6 C-1.125 2.25 -1.125 2.25 0 0 Z " fill="#69D3A2" transform="translate(185,401)"/>
<path d="M0 0 C2.97 0.495 2.97 0.495 6 1 C6 2.65 6 4.3 6 6 C3.97945196 4.35830472 1.97956942 2.69088222 0 1 C0 0.67 0 0.34 0 0 Z " fill="#58CE98" transform="translate(256,362)"/>
<path d="M0 0 C1.98 1.65 3.96 3.3 6 5 C5.01 5.33 4.02 5.66 3 6 C2.01 5.34 1.02 4.68 0 4 C0 2.68 0 1.36 0 0 Z " fill="#63D09F" transform="translate(127,351)"/>
<path d="M0 0 C2.97 0.495 2.97 0.495 6 1 C6 2.65 6 4.3 6 6 C3.97945196 4.35830472 1.97956942 2.69088222 0 1 C0 0.67 0 0.34 0 0 Z " fill="#5DCF9C" transform="translate(240,346)"/>
<path d="M0 0 C1.98 1.65 3.96 3.3 6 5 C5.01 5.33 4.02 5.66 3 6 C2.01 5.34 1.02 4.68 0 4 C0 2.68 0 1.36 0 0 Z " fill="#61D1A0" transform="translate(119,343)"/>
<path d="M0 0 C1.98 0.66 3.96 1.32 6 2 C6.33 3.65 6.66 5.3 7 7 C5.83040013 6.02433888 4.66438823 5.044375 3.5 4.0625 C2.8503125 3.51722656 2.200625 2.97195313 1.53125 2.41015625 C1.0259375 1.94480469 0.520625 1.47945313 0 1 C0 0.67 0 0.34 0 0 Z " fill="#33BB7C" transform="translate(165,338)"/>
<path d="M0 0 C0.33 0.66 0.66 1.32 1 2 C-0.4375 4.625 -0.4375 4.625 -2 7 C-2.99 6.34 -3.98 5.68 -5 5 C-3.35 3.35 -1.7 1.7 0 0 Z " fill="#4FCE92" transform="translate(389,330)"/>
<path d="M0 0 C2.97 0.495 2.97 0.495 6 1 C6 2.65 6 4.3 6 6 C3.97945196 4.35830472 1.97956942 2.69088222 0 1 C0 0.67 0 0.34 0 0 Z " fill="#5DCF9C" transform="translate(224,330)"/>
<path d="M0 0 C1.98 0.66 3.96 1.32 6 2 C6.33 3.65 6.66 5.3 7 7 C5.83040013 6.02433888 4.66438823 5.044375 3.5 4.0625 C2.8503125 3.51722656 2.200625 2.97195313 1.53125 2.41015625 C1.0259375 1.94480469 0.520625 1.47945313 0 1 C0 0.67 0 0.34 0 0 Z " fill="#33BB7C" transform="translate(133,306)"/>
<path d="M0 0 C1.98 1.65 3.96 3.3 6 5 C5.01 5.33 4.02 5.66 3 6 C2.01 5.34 1.02 4.68 0 4 C0 2.68 0 1.36 0 0 Z " fill="#5FCE9B" transform="translate(63,287)"/>
<path d="M0 0 C1.98 1.65 3.96 3.3 6 5 C4.68 5.33 3.36 5.66 2 6 C0 3 0 3 0 0 Z " fill="#59CE97" transform="translate(252,265)"/>
<path d="M0 0 C1.98 0.66 3.96 1.32 6 2 C6.33 3.65 6.66 5.3 7 7 C5.83040013 6.02433888 4.66438823 5.044375 3.5 4.0625 C2.8503125 3.51722656 2.200625 2.97195313 1.53125 2.41015625 C1.0259375 1.94480469 0.520625 1.47945313 0 1 C0 0.67 0 0.34 0 0 Z " fill="#56CE95" transform="translate(285,262)"/>
<path d="M0 0 C2.97 0.495 2.97 0.495 6 1 C6 2.65 6 4.3 6 6 C3.97945196 4.35830472 1.97956942 2.69088222 0 1 C0 0.67 0 0.34 0 0 Z " fill="#63D2A1" transform="translate(154,260)"/>
<path d="M0 0 C2.475 0.495 2.475 0.495 5 1 C5.33 2.65 5.66 4.3 6 6 C3.97945196 4.35830472 1.97956942 2.69088222 0 1 C0 0.67 0 0.34 0 0 Z " fill="#69D4A3" transform="translate(464,240)"/>
<path d="M0 0 C0.66 0.99 1.32 1.98 2 3 C-0.375 4.5625 -0.375 4.5625 -3 6 C-3.66 5.67 -4.32 5.34 -5 5 C-3.35 3.35 -1.7 1.7 0 0 Z " fill="#38C181" transform="translate(27,224)"/>
<path d="M0 0 C2.97 0.495 2.97 0.495 6 1 C6 2.65 6 4.3 6 6 C3.97945196 4.35830472 1.97956942 2.69088222 0 1 C0 0.67 0 0.34 0 0 Z " fill="#54CF96" transform="translate(231,208)"/>
<path d="M0 0 C0.99 0.33 1.98 0.66 3 1 C1.6875 3 1.6875 3 0 5 C-0.99 5 -1.98 5 -3 5 C-1.125 1.125 -1.125 1.125 0 0 Z " fill="#54C792" transform="translate(126,203)"/>
<path d="M0 0 C2.475 0.495 2.475 0.495 5 1 C5.33 2.65 5.66 4.3 6 6 C3.97945196 4.35830472 1.97956942 2.69088222 0 1 C0 0.67 0 0.34 0 0 Z " fill="#5FCE9C" transform="translate(192,169)"/>
<path d="M0 0 C0.33 1.32 0.66 2.64 1 4 C-1.375 5.5625 -1.375 5.5625 -4 7 C-4.66 6.67 -5.32 6.34 -6 6 C-4.02 4.02 -2.04 2.04 0 0 Z " fill="#3AC081" transform="translate(130,121)"/>
<path d="M0 0 C2.97 0.495 2.97 0.495 6 1 C6 2.65 6 4.3 6 6 C3.97945196 4.35830472 1.97956942 2.69088222 0 1 C0 0.67 0 0.34 0 0 Z " fill="#57CF99" transform="translate(187,120)"/>
<path d="M0 0 C0 3.10551666 -0.5393715 4.35261084 -2 7 C-3.32 6.67 -4.64 6.34 -6 6 C-4.02 4.02 -2.04 2.04 0 0 Z " fill="#3AC081" transform="translate(159,92)"/>
<path d="M0 0 C0.33 0.99 0.66 1.98 1 3 C0 5 0 5 -3.0625 6.125 C-4.031875 6.41375 -5.00125 6.7025 -6 7 C-4.02 4.69 -2.04 2.38 0 0 Z " fill="#6DD4A6" transform="translate(247,82)"/>
<path d="M0 0 C1.32 0.66 2.64 1.32 4 2 C1.36095629 3.41377341 -1.07120629 4.37240135 -4 5 C-2.68 3.35 -1.36 1.7 0 0 Z " fill="#77D5AA" transform="translate(330,78)"/>
</svg>
